<?xml version="1.0" encoding="UTF-8"?>
<svg version="1.1" xmlns="http://www.w3.org/2000/svg" width="500" height="500">
<path d="M0 0 C0 0.66 0 1.32 0 2 C0.57621094 2.24105469 1.15242187 2.48210937 1.74609375 2.73046875 C4.43262674 4.24368057 6.03827269 5.99185404 8.0625 8.3125 C8.73410156 9.07175781 9.40570313 9.83101562 10.09765625 10.61328125 C11.97923688 12.97395017 13.51036582 15.37805822 15 18 C17.0901251 17.51183019 19.09724545 16.96543578 21.12109375 16.24609375 C31.13015105 12.75220697 42.26581718 12.40871044 52 17 C60.93714174 22.61473028 67.66923556 29.89015028 71 40 C71 40.99 71 41.98 71 43 C71.98484375 42.9484375 72.9696875 42.896875 73.984375 42.84375 C78.39222003 42.85260999 82.13114162 44.01533878 86.25 45.5 C86.99507813 45.76844727 87.74015625 46.03689453 88.5078125 46.31347656 C102.37309359 51.5849221 113.04189269 61.97470209 119.78515625 75.125 C121.82054287 79.9418635 122.98129754 84.88450133 124 90 C124.18433594 90.83789062 124.36867188 91.67578125 124.55859375 92.5390625 C127.16973668 107.09676202 122.32303873 121.88665859 114.40625 134.02734375 C104.58363968 147.80628323 91.57573555 155.12518489 75 158 C68.41596751 158.68253357 61.78647693 158.54886617 55.17578125 158.51757812 C53.22748291 158.52301097 51.27918869 158.5301401 49.3309021 158.53881836 C44.08291247 158.55691641 38.8352405 158.55004048 33.58724594 158.53730202 C28.06897946 158.52710378 22.55073837 158.5365865 17.0324707 158.54284668 C7.76931934 158.55010334 -1.49370405 158.54058756 -10.75683594 158.52148438 C-21.43321459 158.49971954 -32.10928758 158.50677231 -42.78565884 158.52879 C-51.9878445 158.54700064 -61.18993869 158.54947472 -70.39213657 158.53903532 C-75.87258977 158.53283144 -81.35289977 158.53187859 -86.83334351 158.54518127 C-91.98820525 158.55682195 -97.14267676 158.54856538 -102.2974968 158.52560425 C-104.17789439 158.52036074 -106.05832541 158.52175516 -107.93870926 158.53065491 C-121.68330943 158.58965953 -135.31957077 157.8908352 -147.125 150 C-148.13820313 149.34 -149.15140625 148.68 -150.1953125 148 C-162.47902092 139.24058675 -171.29972516 126.28478076 -174.375 111.375 C-176.92938307 93.15197853 -171.96082959 76.64977417 -161 62 C-151.39828696 51.01393647 -137.51438133 44.09957434 -123 43 C-122.84144531 44.07636719 -122.68289062 45.15273437 -122.51953125 46.26171875 C-119.87063029 63.2345956 -114.38421665 76.98946668 -103 90 C-103 90.66 -103 91.32 -103 92 C-102.34 92 -101.68 92 -101 92 C-101 92.66 -101 93.32 -101 94 C-100.34 94 -99.68 94 -99 94 C-99 94.66 -99 95.32 -99 96 C-98.484375 96.226875 -97.96875 96.45375 -97.4375 96.6875 C-94.10452995 98.48217618 -90.85296329 100.49965015 -88 103 C-88 103.66 -88 104.32 -88 105 C-87.00033203 105.36351562 -87.00033203 105.36351562 -85.98046875 105.734375 C-82.99323272 107.00287365 -80.25776215 108.48629467 -77.43212891 110.07177734 C-61.94995118 118.67774253 -46.49632756 122.80919046 -29 125 C-28.3083374 125.0942627 -27.6166748 125.18852539 -26.90405273 125.28564453 C0.77099305 128.9871281 34.38009468 122.12665852 58 107 C59.22059151 104.12801997 59.18631175 102.74524702 58.4375 99.75 C57.06030819 97.73208939 57.06030819 97.73208939 54.23828125 97.23046875 C50.41936444 96.95867612 49.0219042 97.65388922 45.75 99.5625 C32.96920839 106.3641589 19.22587773 109.76312556 5 112 C4.05656738 112.17200928 3.11313477 112.34401855 2.14111328 112.52124023 C-12.60817651 114.76928604 -28.58898195 113.70294235 -43 110 C-44.14855469 109.73316406 -45.29710937 109.46632813 -46.48046875 109.19140625 C-61.03658384 105.49069902 -75.44073717 98.68967771 -87 89 C-87 88.34 -87 87.68 -87 87 C-88.98 86.01 -88.98 86.01 -91 85 C-91 84.34 -91 83.68 -91 83 C-91.66 83 -92.32 83 -93 83 C-104.62190593 69.93844356 -110.05468757 54.2302144 -109.57421875 36.9765625 C-108.70773436 25.70135255 -101.41185728 15.17531039 -94 7 C-93.03707031 5.88238281 -93.03707031 5.88238281 -92.0546875 4.7421875 C-66.70483219 -22.85267345 -28.51425863 -19.00950575 0 0 Z " fill="#8CD5F8" transform="translate(275,141)"/>
<path d="M0 0 C0.15855469 1.07636719 0.31710938 2.15273437 0.48046875 3.26171875 C3.12936971 20.2345956 8.61578335 33.98946668 20 47 C20 47.66 20 48.32 20 49 C20.66 49 21.32 49 22 49 C22 49.66 22 50.32 22 51 C22.66 51 23.32 51 24 51 C24 51.66 24 52.32 24 53 C24.515625 53.226875 25.03125 53.45375 25.5625 53.6875 C28.89547005 55.48217618 32.14703671 57.49965015 35 60 C35 60.66 35 61.32 35 62 C35.66644531 62.24234375 36.33289063 62.4846875 37.01953125 62.734375 C40.00676728 64.00287365 42.74223785 65.48629467 45.56787109 67.07177734 C61.05004882 75.67774253 76.50367244 79.80919046 94 82 C94.6916626 82.0942627 95.3833252 82.18852539 96.09594727 82.28564453 C119.48479819 85.41385787 144.08076655 80.39221306 165.71166992 71.46191406 C179.21534055 65.91385839 191.76322865 66.14841687 205.9375 68.75 C206.81301514 68.90678223 207.68853027 69.06356445 208.59057617 69.22509766 C214.27071581 70.35430487 218.95727664 72.18022917 224 75 C224.87269531 75.4434375 225.74539063 75.886875 226.64453125 76.34375 C227.35996094 76.7253125 228.07539063 77.106875 228.8125 77.5 C229.90498047 78.07234375 229.90498047 78.07234375 231.01953125 78.65625 C233.28432633 80.1929157 234.55355449 81.68479155 236 84 C236.64241582 88.81811862 235.64225558 92.94382839 233 97 C223.47236771 107.22851559 209.81372212 113.95420819 195.87570453 115.18805003 C193.72354678 115.26020059 191.57921235 115.27641698 189.4258728 115.26742554 C188.20514759 115.27422221 188.20514759 115.27422221 186.95976126 115.28115618 C184.2587594 115.29371964 181.55796126 115.29218505 178.85693359 115.29052734 C176.90952295 115.29651773 174.96211467 115.30332445 173.01470947 115.31088257 C167.74166338 115.32850031 162.46868226 115.33323624 157.19560957 115.33451414 C153.89499333 115.33593899 150.59439344 115.34021496 147.29378128 115.34550858 C135.76111051 115.3639967 124.22848588 115.37218094 112.69580078 115.37060547 C101.97526054 115.36940524 91.25492201 115.39048751 80.53443277 115.4220928 C71.30690744 115.44831929 62.07944772 115.45897006 52.85188544 115.45769465 C47.35120076 115.45718678 41.85069535 115.46277249 36.35004807 115.48405075 C31.17067475 115.50354008 25.99164972 115.50348497 20.81226349 115.48901749 C18.92218385 115.48694132 17.03208179 115.49155827 15.14204025 115.5037384 C1.36155695 115.58672091 -12.2855021 114.91360695 -24.125 107 C-25.13820313 106.34 -26.15140625 105.68 -27.1953125 105 C-39.47902092 96.24058675 -48.29972516 83.28478076 -51.375 68.375 C-53.92938307 50.15197853 -48.96082959 33.64977417 -38 19 C-29.00588361 8.70913485 -13.97197058 0 0 0 Z " fill="#6BC1F4" transform="translate(152,184)"/>
<path d="M0 0 C0.15855469 1.07636719 0.31710938 2.15273437 0.48046875 3.26171875 C3.12936971 20.2345956 8.61578335 33.98946668 20 47 C20 47.66 20 48.32 20 49 C20.66 49 21.32 49 22 49 C22 49.66 22 50.32 22 51 C22.66 51 23.32 51 24 51 C24 51.66 24 52.32 24 53 C24.515625 53.226875 25.03125 53.45375 25.5625 53.6875 C28.89547005 55.48217618 32.14703671 57.49965015 35 60 C35 60.66 35 61.32 35 62 C35.66644531 62.24234375 36.33289063 62.4846875 37.01953125 62.734375 C40.00676728 64.00287365 42.74223785 65.48629467 45.56787109 67.07177734 C61.05130848 75.67844272 76.50319249 79.80611852 94 82 C94.69456299 82.09571289 95.38912598 82.19142578 96.10473633 82.29003906 C111.18360989 84.32524651 126.85487397 82.67591304 142 82 C139.34342193 83.77105205 137.81814771 84.46523902 134.83203125 85.25390625 C133.61483398 85.57584961 133.61483398 85.57584961 132.37304688 85.90429688 C131.52806641 86.12150391 130.68308594 86.33871094 129.8125 86.5625 C128.98685547 86.78357422 128.16121094 87.00464844 127.31054688 87.23242188 C100.56295515 94.20913808 69.07584152 91.39810978 44 80 C42.67761709 79.62557734 41.34742768 79.27079055 40 79 C40 78.34 40 77.68 40 77 C39.113125 76.731875 38.22625 76.46375 37.3125 76.1875 C34.2090334 75.0749365 31.68889315 73.89804222 29 72 C29 71.34 29 70.68 29 70 C27.35 69.67 25.7 69.34 24 69 C24 68.34 24 67.68 24 67 C22.68 66.67 21.36 66.34 20 66 C20 65.34 20 64.68 20 64 C19.43796875 63.76925781 18.8759375 63.53851563 18.296875 63.30078125 C9.1424875 58.11640874 2.91384517 46.90634437 -2 38 C-2.495 37.11828125 -2.99 36.2365625 -3.5 35.328125 C-8.29432832 25.91069437 -10.31402187 14.52799636 -10 4 C-10.66 4 -11.32 4 -12 4 C-12 3.34 -12 2.68 -12 2 C-10.56342755 1.66269158 -9.12569907 1.33030409 -7.6875 1 C-6.88699219 0.814375 -6.08648437 0.62875 -5.26171875 0.4375 C-3 0 -3 0 0 0 Z " fill="#56AAE5" transform="translate(152,184)"/>
<path d="M0 0 C1.65 0.33 3.3 0.66 5 1 C6.65 6.61 8.3 12.22 10 18 C10.78375 15.89625 11.5675 13.7925 12.375 11.625 C14.75 5.25 14.75 5.25 17 3 C19.875 2.75 19.875 2.75 23 4 C25.50781304 8.34740004 26.85526749 13.13772034 28 18 C28.33773437 16.86820312 28.67546875 15.73640625 29.0234375 14.5703125 C29.47362638 13.08844078 29.92416543 11.60667541 30.375 10.125 C30.70757812 9.00544922 30.70757812 9.00544922 31.046875 7.86328125 C32.7734375 2.2265625 32.7734375 2.2265625 35 0 C37.625 0.375 37.625 0.375 40 1 C40.28904229 5.92893175 39.27423985 9.91363075 37.625 14.5 C37.29242188 15.45712891 37.29242188 15.45712891 36.953125 16.43359375 C36.30742583 18.29092843 35.65382636 20.14551068 35 22 C34.65710938 23.0828125 34.31421875 24.165625 33.9609375 25.28125 C33 28 33 28 31 31 C28.5625 31.4375 28.5625 31.4375 26 31 C23.48057388 28.18987087 22.14935431 25.25348025 20.8125 21.75 C20.46832031 20.85796875 20.12414062 19.9659375 19.76953125 19.046875 C19.51558594 18.37140625 19.26164062 17.6959375 19 17 C18.66226563 17.84304688 18.32453125 18.68609375 17.9765625 19.5546875 C17.53054687 20.65039062 17.08453125 21.74609375 16.625 22.875 C16.18414062 23.96554687 15.74328125 25.05609375 15.2890625 26.1796875 C14 29 14 29 12 31 C8.375 30.625 8.375 30.625 5 30 C4.20798823 27.31260128 3.41638134 24.62508437 2.625 21.9375 C2.29242188 20.80924805 2.29242188 20.80924805 1.953125 19.65820312 C1.51191697 18.1593935 1.07253203 16.66004594 0.63500977 15.16015625 C0.22470837 13.76440588 -0.19353488 12.37095461 -0.62133789 10.98046875 C-1.75351909 7.23635584 -2.22374562 4.78248647 -1 1 C-0.67 0.67 -0.34 0.34 0 0 Z " fill="#364760" transform="translate(110,340)"/>
<path d="M0 0 C1.51171875 1.890625 1.51171875 1.890625 2.6875 4.25 C3.28111328 5.40242188 3.28111328 5.40242188 3.88671875 6.578125 C5.01063659 9.02313925 6.02608098 11.491825 7 14 C7.67095703 12.50146484 7.67095703 12.50146484 8.35546875 10.97265625 C8.96517749 9.66881757 9.5759082 8.36545645 10.1875 7.0625 C10.47947266 6.40314453 10.77144531 5.74378906 11.07226562 5.06445312 C13.37268889 0.24098498 13.37268889 0.24098498 16.61328125 -1.00390625 C19 -1 19 -1 21 0 C23.06209324 6.01272876 23.57908213 12.64764492 24.25 18.9375 C24.4046875 20.21077148 24.4046875 20.21077148 24.5625 21.50976562 C24.65015625 22.31994141 24.7378125 23.13011719 24.828125 23.96484375 C24.9096582 24.6930835 24.99119141 25.42132324 25.07519531 26.17163086 C25 28 25 28 23 30 C18.44444444 29.44444444 18.44444444 29.44444444 17 28 C16.76518307 25.81707226 16.58636677 23.62796826 16.4375 21.4375 C16.31181641 19.64119141 16.31181641 19.64119141 16.18359375 17.80859375 C16.12300781 16.88175781 16.06242187 15.95492188 16 15 C15.34 15 14.68 15 14 15 C13.01 17.97 12.02 20.94 11 24 C8.75 24.6875 8.75 24.6875 6 25 C2.81854847 23.27292631 1.26488332 21.37302218 0 18 C0 17.01 0 16.02 0 15 C-0.66 15 -1.32 15 -2 15 C-1.97679687 15.74765625 -1.95359375 16.4953125 -1.9296875 17.265625 C-1.90261719 18.74289062 -1.90261719 18.74289062 -1.875 20.25 C-1.85179687 21.22453125 -1.82859375 22.1990625 -1.8046875 23.203125 C-2.00137219 26.0196498 -2.55431084 27.60949036 -4 30 C-5.98 30 -7.96 30 -10 30 C-10.88932096 26.36853816 -11.00161969 23.4991067 -10.4765625 19.8046875 C-10.3425 18.84175781 -10.2084375 17.87882812 -10.0703125 16.88671875 C-9.92335938 15.89285156 -9.77640625 14.89898437 -9.625 13.875 C-9.48578125 12.87339844 -9.3465625 11.87179687 -9.203125 10.83984375 C-8.15293838 3.45881513 -8.15293838 3.45881513 -7 0 C-4.2419292 -1.3790354 -2.89748211 -0.94357328 0 0 Z " fill="#263853" transform="translate(305,341)"/>
<path d="M0 0 C2.31 0 4.62 0 7 0 C7 0.66 7 1.32 7 2 C12.92841903 2.73413998 18.70514468 3.1504532 24.67506409 3.15821838 C25.49946438 3.16315636 26.32386468 3.16809434 27.1732468 3.17318195 C29.90919719 3.18842268 32.64512437 3.19688076 35.38110352 3.20532227 C37.35285136 3.21491137 39.3245972 3.22492205 41.29634094 3.23532104 C46.63033569 3.2622643 51.9643392 3.28333089 57.29836392 3.30332303 C62.87974708 3.32524813 68.46110359 3.35260479 74.04246521 3.37937927 C84.60319232 3.42921818 95.1639343 3.47418954 105.72469038 3.51740164 C117.75129007 3.5668494 129.77786301 3.62173949 141.8044368 3.67708123 C166.53626622 3.79076609 191.26812132 3.89763433 216 4 C216 4.66 216 5.32 216 6 C190.18233571 6.09361032 164.364697 6.16406093 138.54689693 6.20724869 C126.55814362 6.22783815 114.569496 6.25588945 102.58081055 6.30175781 C92.12651243 6.34173645 81.6722909 6.36745907 71.21791846 6.37635398 C65.68689427 6.38155007 60.15608912 6.39368701 54.62513542 6.42292023 C49.40897745 6.45026376 44.19312675 6.45840702 38.97690392 6.45243073 C37.07230708 6.45352255 35.16769893 6.46136272 33.26316452 6.4768219 C22.06655465 6.5631738 11.55474674 6.16233055 1 2 C0.67 1.34 0.34 0.68 0 0 Z " fill="#A2D5EF" transform="translate(134,293)"/>
<path d="M0 0 C2.00720923 0.28674418 4.0085944 0.61866701 6 1 C6 3.64 6 6.28 6 9 C7.19625 8.773125 8.3925 8.54625 9.625 8.3125 C13.9006369 7.78183585 16.38917337 8.50681018 20 11 C22.68902873 14.71558361 22.22570657 18.86539069 22.125 23.25 C22.11597656 23.99507813 22.10695312 24.74015625 22.09765625 25.5078125 C22.07418358 27.33868059 22.03831525 29.16938238 22 31 C17.25 32.125 17.25 32.125 15 31 C14.5859375 27.83984375 14.5859375 27.83984375 14.375 23.9375 C14.30023438 22.64714844 14.22546875 21.35679687 14.1484375 20.02734375 C14.09945312 19.02832031 14.05046875 18.02929688 14 17 C11.60280568 16.32041397 11.60280568 16.32041397 9 16 C6.23468808 18.76531192 6.63630986 20.70897263 6.4375 24.5625 C6.09722222 30.90277778 6.09722222 30.90277778 5 32 C2.5 32.125 2.5 32.125 0 32 C-1.88319268 30.11680732 -1.13054285 26.88069863 -1.1328125 24.375 C-1.13376923 23.71290527 -1.13472595 23.05081055 -1.13571167 22.36865234 C-1.13639326 20.96647039 -1.13454042 19.5642853 -1.13037109 18.16210938 C-1.12502246 16.00904287 -1.1303167 13.85618498 -1.13671875 11.703125 C-1.13605796 10.34374954 -1.13477679 8.9843742 -1.1328125 7.625 C-1.13168457 6.37976563 -1.13055664 5.13453125 -1.12939453 3.8515625 C-1 1 -1 1 0 0 Z " fill="#2A3C54" transform="translate(218,339)"/>
<path d="M0 0 C2.95522778 3.49254192 2.91593111 5.89386431 3.0625 10.4375 C2.7325 11.0975 2.4025 11.7575 2.0625 12.4375 C-0.87890625 12.8515625 -0.87890625 12.8515625 -4.5 13.0625 C-5.69753906 13.13726562 -6.89507812 13.21203125 -8.12890625 13.2890625 C-9.51916016 13.36253906 -9.51916016 13.36253906 -10.9375 13.4375 C-7.02013419 14.6075097 -3.95790985 14.13334017 0.0625 13.4375 C0.3925 15.0875 0.7225 16.7375 1.0625 18.4375 C-2.79462021 21.7880399 -5.49313683 21.94683868 -10.4609375 21.79296875 C-14.83940363 21.16451383 -17.62386522 19.10939881 -20.3125 15.6875 C-21.59145905 11.08324741 -21.54188778 7.03735002 -19.875 2.625 C-14.31204863 -3.65575155 -7.03701816 -3.74309477 0 0 Z M-12.9375 5.4375 C-12.9375 5.7675 -12.9375 6.0975 -12.9375 6.4375 C-10.2975 6.4375 -7.6575 6.4375 -4.9375 6.4375 C-5.2675 5.7775 -5.5975 5.1175 -5.9375 4.4375 C-8.36547311 4.4375 -10.56657005 4.93835685 -12.9375 5.4375 Z " fill="#172A45" transform="translate(262.9375,349.5625)"/>
<path d="M0 0 C2.38312703 1.89428046 3.6500559 3.30011179 5 6 C5.1875 9.5 5.1875 9.5 5 13 C4.34 13.66 3.68 14.32 3 15 C2.83318891 18.08347826 2.83318891 18.08347826 3 21 C-1.55847872 23.64244379 -5.85281108 23.55059071 -11 23 C-14.68623011 21.38727433 -15.75355 20.369675 -18 17 C-18.67040358 11.96417779 -18.77856254 7.46729094 -16.375 2.9375 C-11.05664003 -1.40116208 -6.42474649 -1.45074921 0 0 Z M-8 5 C-8.99 6.485 -8.99 6.485 -10 8 C-7.69 8 -5.38 8 -3 8 C-3.66 7.01 -4.32 6.02 -5 5 C-5.99 5 -6.98 5 -8 5 Z M-10 14 C-9.01 15.485 -9.01 15.485 -8 17 C-4.06924356 16.42547254 -4.06924356 16.42547254 -1 14 C-3.97 14 -6.94 14 -10 14 Z " fill="#273752" transform="translate(169,348)"/>
<path d="M0 0 C0 0.66 0 1.32 0 2 C0.66 2 1.32 2 2 2 C3.125 9.75 3.125 9.75 2 12 C-1.16015625 12.4140625 -1.16015625 12.4140625 -5.0625 12.625 C-6.35285156 12.69976562 -7.64320313 12.77453125 -8.97265625 12.8515625 C-9.97167969 12.90054687 -10.97070312 12.94953125 -12 13 C-7.68903724 14.00514676 -4.37164968 13.77146759 0 13 C0.6875 14.8125 0.6875 14.8125 1 17 C-0.52301613 18.9581636 -1.78226023 19.89113011 -4 21 C-8.82911 21.52137294 -12.74166846 21.73402673 -17 19.25 C-20.46907659 15.34728883 -21.57423021 12.49074417 -21.453125 7.1015625 C-20.6164567 3.22115262 -18.06174375 0.42271008 -15 -2 C-9.88456189 -3.86575097 -4.47434479 -2.98289653 0 0 Z M-11.625 4.5 C-12.07875 4.995 -12.5325 5.49 -13 6 C-10.36 6 -7.72 6 -5 6 C-6.37485532 4.45833358 -6.37485532 4.45833358 -8 3 C-10.12364481 2.77390663 -10.12364481 2.77390663 -11.625 4.5 Z " fill="#263652" transform="translate(392,350)"/>
<path d="M0 0 C3.35897238 4.97127912 3.78703259 9.3120806 3.1875 15.1875 C3.07664062 16.33992188 2.96578125 17.49234375 2.8515625 18.6796875 C2.70847656 19.98292969 2.70847656 19.98292969 2.5625 21.3125 C-0.16833902 21.44798815 -2.89241807 21.54679855 -5.625 21.625 C-6.39392578 21.66689453 -7.16285156 21.70878906 -7.95507812 21.75195312 C-12.20016209 21.84304935 -13.8976581 21.73125586 -17.36328125 19.04296875 C-20.31500177 15.15737055 -21.84599005 12.81611383 -21.375 7.875 C-20.88486233 4.33317181 -20.40839453 3.27474155 -18.125 0.3125 C-12.78925606 -3.65828619 -5.53244837 -3.83015656 0 0 Z M-12.75 5.75 C-13.306875 6.265625 -13.86375 6.78125 -14.4375 7.3125 C-13.93918276 11.00004757 -13.33682357 12.91740662 -10.4375 15.3125 C-7.18766865 14.22465032 -7.18766865 14.22465032 -4.4375 12.3125 C-4.72480055 9.97305264 -5.05686779 7.6385857 -5.4375 5.3125 C-9.23485079 4.13870426 -9.23485079 4.13870426 -12.75 5.75 Z " fill="#33425C" transform="translate(352.4375,349.6875)"/>
<path d="M0 0 C2.64233769 2.19257809 4.46669809 3.93339618 6 7 C6.09773002 9.5323572 6.13910387 12.03085592 6.125 14.5625 C6.13080078 15.60954102 6.13080078 15.60954102 6.13671875 16.67773438 C6.12663994 21.87336006 6.12663994 21.87336006 5 23 C2.41879363 23.2084019 -0.10255934 23.32462915 -2.6875 23.375 C-3.39583984 23.41238281 -4.10417969 23.44976562 -4.83398438 23.48828125 C-8.86032532 23.55520104 -11.28110105 23.18443732 -14.45703125 20.6015625 C-18.35681472 16.61192227 -18.40239326 13.89943307 -18.34765625 8.48046875 C-18 6 -18 6 -15.8125 3 C-10.53100218 -0.75573178 -6.28425375 -2.00588302 0 0 Z M-11 8 C-11.58345476 10.95746492 -11.58345476 10.95746492 -11 14 C-9.44202118 16.14782671 -9.44202118 16.14782671 -7 17 C-4.24308557 16.66390749 -4.24308557 16.66390749 -2 15 C-0.8192311 11.71071522 -0.8842823 10.34715311 -2 7 C-6.74076549 5.81301999 -6.74076549 5.81301999 -11 8 Z " fill="#314059" transform="translate(194,348)"/>
<path d="M0 0 C1.546875 1.890625 1.546875 1.890625 2.75 4.25 C3.15734375 5.01828125 3.5646875 5.7865625 3.984375 6.578125 C5.02162326 9.05156315 5.56916219 11.35877692 6 14 C5.01 14.495 5.01 14.495 4 15 C3.67 14.34 3.34 13.68 3 13 C2.67 14.98 2.34 16.96 2 19 C1.34 18.67 0.68 18.34 0 18 C0 17.01 0 16.02 0 15 C-0.66 15 -1.32 15 -2 15 C-1.97679687 15.74765625 -1.95359375 16.4953125 -1.9296875 17.265625 C-1.90261719 18.74289062 -1.90261719 18.74289062 -1.875 20.25 C-1.85179687 21.22453125 -1.82859375 22.1990625 -1.8046875 23.203125 C-2.00137219 26.0196498 -2.55431084 27.60949036 -4 30 C-5.98 30 -7.96 30 -10 30 C-10.88932096 26.36853816 -11.00161969 23.4991067 -10.4765625 19.8046875 C-10.3425 18.84175781 -10.2084375 17.87882812 -10.0703125 16.88671875 C-9.92335938 15.89285156 -9.77640625 14.89898437 -9.625 13.875 C-9.48578125 12.87339844 -9.3465625 11.87179687 -9.203125 10.83984375 C-8.15293838 3.45881513 -8.15293838 3.45881513 -7 0 C-4.24124335 -1.37937832 -2.89895073 -0.94260361 0 0 Z " fill="#48566B" transform="translate(305,341)"/>
<path d="M0 0 C1.66611905 -0.042721 3.33382885 -0.04063832 5 0 C6 1 6 1 6.0625 4.0625 C6.041875 5.031875 6.02125 6.00125 6 7 C7.98 7 9.96 7 12 7 C12.042721 8.66611905 12.04063832 10.33382885 12 12 C11 13 11 13 8.4375 13.0625 C7.633125 13.041875 6.82875 13.02125 6 13 C6.33 15.97 6.66 18.94 7 22 C9.475 22.99 9.475 22.99 12 24 C12.042721 25.66611905 12.04063832 27.33382885 12 29 C11 30 11 30 8.25 30.25 C4.59296993 29.96868999 2.85016491 29.28013193 0 27 C-1.0382684 24.02233982 -1.12863339 21.22086946 -1.1328125 18.0859375 C-1.13410156 17.16039062 -1.13539063 16.23484375 -1.13671875 15.28125 C-1.13091797 13.84265625 -1.13091797 13.84265625 -1.125 12.375 C-1.12886719 11.40820312 -1.13273438 10.44140625 -1.13671875 9.4453125 C-1.13542969 8.52234375 -1.13414062 7.599375 -1.1328125 6.6484375 C-1.13168457 5.80458496 -1.13055664 4.96073242 -1.12939453 4.09130859 C-1 2 -1 2 0 0 Z " fill="#192C48" transform="translate(203,341)"/>
<path d="M0 0 C1.24546405 2.49092811 0.7767578 3.41080733 0 6 C1.65 6 3.3 6 5 6 C5.38218767 7.65614657 5.71395102 9.32457024 6 11 C5 12 5 12 2.4375 12.0625 C1.633125 12.041875 0.82875 12.02125 0 12 C0.06006078 13.45947705 0.1488689 14.91779272 0.25 16.375 C0.29640625 17.18710937 0.3428125 17.99921875 0.390625 18.8359375 C0.7922092 21.18838927 0.7922092 21.18838927 3.046875 22.2890625 C3.69140625 22.52367187 4.3359375 22.75828125 5 23 C5.042721 24.66611905 5.04063832 26.33382885 5 28 C4 29 4 29 1.25 29.375 C-2 29 -2 29 -4.68359375 27.24609375 C-8.22242079 22.28696176 -7.53766092 17.6144281 -7.3125 11.6875 C-7.28994141 10.56537109 -7.26738281 9.44324219 -7.24414062 8.28710938 C-7.18533776 5.52337464 -7.10320401 2.76237446 -7 0 C-4.30234372 -1.34882814 -2.84835666 -0.80338265 0 0 Z " fill="#253851" transform="translate(365,342)"/>
<path d="M0 0 C0.66 0.66 1.32 1.32 2 2 C1.625 4.625 1.625 4.625 1 7 C-1.31 7.33 -3.62 7.66 -6 8 C-5.98839844 9.07121094 -5.97679687 10.14242188 -5.96484375 11.24609375 C-5.95546701 12.64322743 -5.94636669 14.04036299 -5.9375 15.4375 C-5.92912109 16.14455078 -5.92074219 16.85160156 -5.91210938 17.58007812 C-5.90346412 19.38693559 -5.94779989 21.19387603 -6 23 C-6.33 23.33 -6.66 23.66 -7 24 C-8.98 24 -10.96 24 -13 24 C-13 17.73 -13 11.46 -13 5 C-12.34 5 -11.68 5 -11 5 C-10.7525 4.360625 -10.505 3.72125 -10.25 3.0625 C-9 1 -9 1 -7.1875 0.25 C-4.73159149 -0.03067526 -2.46844802 -0.19487748 0 0 Z " fill="#3D4C64" transform="translate(281,347)"/>
<path d="M0 0 C0.12375 0.639375 0.2475 1.27875 0.375 1.9375 C0.58125 2.618125 0.7875 3.29875 1 4 C1.66 4.33 2.32 4.66 3 5 C3.33 5.66 3.66 6.32 4 7 C9.61 7.33 15.22 7.66 21 8 C20.67 8.66 20.34 9.32 20 10 C19.960008 11.99960012 19.95653201 14.00047242 20 16 C15.44152128 18.64244379 11.14718892 18.55059071 6 18 C2.31376989 16.38727433 1.24645 15.369675 -1 12 C-1.23046875 9.3359375 -1.23046875 9.3359375 -1.1875 6.375 C-1.18105469 5.39273437 -1.17460937 4.41046875 -1.16796875 3.3984375 C-1 1 -1 1 0 0 Z M7 9 C7.99 10.485 7.99 10.485 9 12 C12.93075644 11.42547254 12.93075644 11.42547254 16 9 C13.03 9 10.06 9 7 9 Z " fill="#697488" transform="translate(152,353)"/>
<path d="M0 0 C2.5625 2.0625 2.5625 2.0625 4 4 C3.67 4.66 3.34 5.32 3 6 C1.35 6 -0.3 6 -2 6 C-1.67 6.66 -1.34 7.32 -1 8 C-0.95977609 10.3329866 -0.95679753 12.66706666 -1 15 C-1.99 15 -2.98 15 -4 15 C-3.67 14.67 -3.34 14.34 -3 14 C-2.95907063 11.66702567 -2.95758277 9.33294775 -3 7 C-3.62648438 7.09539062 -4.25296875 7.19078125 -4.8984375 7.2890625 C-5.71570313 7.39992188 -6.53296875 7.51078125 -7.375 7.625 C-8.18710937 7.74101562 -8.99921875 7.85703125 -9.8359375 7.9765625 C-10.55007813 7.98429687 -11.26421875 7.99203125 -12 8 C-12.66 7.34 -13.32 6.68 -14 6 C-14.99 6 -15.98 6 -17 6 C-16.90460938 6.62648438 -16.80921875 7.25296875 -16.7109375 7.8984375 C-16.60007812 8.71570313 -16.48921875 9.53296875 -16.375 10.375 C-16.25898438 11.18710937 -16.14296875 11.99921875 -16.0234375 12.8359375 C-16.01570313 13.55007813 -16.00796875 14.26421875 -16 15 C-16.66 15.66 -17.32 16.32 -18 17 C-19.1487036 11.04762681 -19.36698285 7.36612892 -16 2 C-10.77830179 -1.34188686 -5.9697556 -1.75174296 0 0 Z " fill="#4B5B71" transform="translate(350,348)"/>
<path d="M0 0 C2.625 0.375 2.625 0.375 5 1 C5.32230346 6.17297057 4.21620813 10.08817084 2.5 14.875 C2.26152344 15.56335938 2.02304688 16.25171875 1.77734375 16.9609375 C1.19311961 18.64350304 0.59769889 20.32217383 0 22 C-0.66 22 -1.32 22 -2 22 C-2.33 23.32 -2.66 24.64 -3 26 C-6.74397011 18.74605792 -5.16163467 11.52163917 -2.8515625 4.06640625 C-2 2 -2 2 0 0 Z " fill="#38475F" transform="translate(145,340)"/>
<path d="M0 0 C3.32532111 2.69192661 4.52454943 6.06546515 6 10 C6 10.99 6 11.98 6 13 C6.98484375 12.9484375 7.9696875 12.896875 8.984375 12.84375 C13.39284164 12.85261124 17.13019119 14.01679387 21.25 15.5 C21.99072754 15.76409668 22.73145508 16.02819336 23.49462891 16.30029297 C31.61503357 19.3646299 38.98596977 23.72156903 44 31 C42.35 30.67 40.7 30.34 39 30 C38.505 28.515 38.505 28.515 38 27 C37.01 26.67 36.02 26.34 35 26 C34.01 25.67 33.02 25.34 32 25 C31.67 24.01 31.34 23.02 31 22 C29.02 21.67 27.04 21.34 25 21 C25 20.34 25 19.68 25 19 C23.741875 18.855625 22.48375 18.71125 21.1875 18.5625 C18.57332877 18.26251314 16.52560108 17.84186703 14 17 C12.50135904 16.87782818 11.00106083 16.77506188 9.5 16.6875 C5.27512296 16.22187336 5.27512296 16.22187336 3.0625 14.4375 C0.97703152 9.65318995 0 5.22156663 0 0 Z " fill="#ABDAED" transform="translate(340,171)"/>
<path d="M0 0 C1.48831242 0.00667405 2.97660807 0.01863442 4.46484375 0.03515625 C5.22345703 0.03966797 5.98207031 0.04417969 6.76367188 0.04882812 C8.64326246 0.06064945 10.52281274 0.07858547 12.40234375 0.09765625 C12.40234375 0.42765625 12.40234375 0.75765625 12.40234375 1.09765625 C5.96734375 1.59265625 5.96734375 1.59265625 -0.59765625 2.09765625 C3.6012963 3.14739439 6.19640149 2.8256078 10.40234375 2.09765625 C10.73234375 3.74765625 11.06234375 5.39765625 11.40234375 7.09765625 C7.54593839 10.4475752 4.8504829 10.59357839 -0.11328125 10.46875 C-3.81673458 9.91556122 -5.76053554 8.48681053 -8.59765625 6.09765625 C-8.26765625 5.43765625 -7.93765625 4.77765625 -7.59765625 4.09765625 C-6.93765625 4.42765625 -6.27765625 4.75765625 -5.59765625 5.09765625 C-5.38109375 4.13859375 -5.38109375 4.13859375 -5.16015625 3.16015625 C-4.20177876 -0.35389455 -3.93364551 0.10677648 0 0 Z " fill="#3D4B64" transform="translate(252.59765625,360.90234375)"/>
<path d="M0 0 C2 1.5625 2 1.5625 3 3 C1.35 3 -0.3 3 -2 3 C-2 3.66 -2 4.32 -2 5 C-2 6.32 -2 7.64 -2 9 C-6 9 -10 9 -14 9 C-14.99 9.495 -14.99 9.495 -16 10 C-15.67 11.98 -15.34 13.96 -15 16 C-15.66 16.33 -16.32 16.66 -17 17 C-18.60055535 13.79888929 -18.35481231 10.48117737 -18 7 C-16.56569344 3.20330615 -15.33200553 2.19529737 -11.8125 0.125 C-7.12667901 -1.25770128 -4.73260261 -1.10427394 0 0 Z M-10 7 C-10 7.33 -10 7.66 -10 8 C-7.36 8 -4.72 8 -2 8 C-2.33 7.34 -2.66 6.68 -3 6 C-5.42797311 6 -7.62907005 6.50085685 -10 7 Z " fill="#435064" transform="translate(260,348)"/>
<path d="M0 0 C6.93 0 13.86 0 21 0 C21.66 1.32 22.32 2.64 23 4 C22.01 5.32 21.02 6.64 20 8 C17.43526688 7.74382807 14.87427663 7.47065547 12.3125 7.1875 C11.59126953 7.11724609 10.87003906 7.04699219 10.12695312 6.97460938 C5.72475171 6.47207497 2.68603803 5.65365657 -1 3 C-0.67 2.01 -0.34 1.02 0 0 Z " fill="#50A8E6" transform="translate(212,265)"/>
<path d="M0 0 C1.67542976 0.28604898 3.34385343 0.61781233 5 1 C5.70005949 3.07914664 6.38462244 5.16351586 7.0625 7.25 C7.44535156 8.41015625 7.82820313 9.5703125 8.22265625 10.765625 C8.95211763 13.80077085 9.11889082 15.15703213 8 18 C8 17.01 8 16.02 8 15 C6.19821362 17.94837771 4.52360906 20.89978679 3 24 C2.13200283 21.10767725 1.2803444 18.21215302 0.4375 15.3125 C0.19064453 14.49587891 -0.05621094 13.67925781 -0.31054688 12.83789062 C-2.51045275 5.18469696 -2.51045275 5.18469696 -1 1 C-0.67 0.67 -0.34 0.34 0 0 Z " fill="#424D60" transform="translate(110,340)"/>
<path d="M0 0 C3.44795223 1.53242321 6.2199038 3.44531701 9 6 C9.8125 8.25 9.8125 8.25 10 10 C10.99 10 11.98 10 13 10 C13.061875 10.928125 13.061875 10.928125 13.125 11.875 C13.41375 12.57625 13.7025 13.2775 14 14 C16.97503122 15.15835673 16.97503122 15.15835673 20 16 C20.33 16.66 20.66 17.32 21 18 C21.99 18.33 22.98 18.66 24 19 C24.33 19.66 24.66 20.32 25 21 C27.02463255 21.65213292 27.02463255 21.65213292 29 22 C29 22.66 29 23.32 29 24 C30.32 24.33 31.64 24.66 33 25 C33 25.66 33 26.32 33 27 C34.65 27 36.3 27 38 27 C38 27.66 38 28.32 38 29 C39.98 29.33 41.96 29.66 44 30 C44 30.66 44 31.32 44 32 C45.32 32.33 46.64 32.66 48 33 C47.01 33.495 47.01 33.495 46 34 C43.43124761 33.06072488 40.98798894 32.05971769 38.5 30.9375 C37.77820557 30.61604004 37.05641113 30.29458008 36.31274414 29.96337891 C30.60770642 27.37522429 25.22291211 24.46916364 20 21 C18.93072266 20.30003906 18.93072266 20.30003906 17.83984375 19.5859375 C16.17944071 18.45699547 14.58118932 17.23745251 13 16 C13 15.34 13 14.68 13 14 C11.68 13.34 10.36 12.68 9 12 C9 11.34 9 10.68 9 10 C8.34 10 7.68 10 7 10 C5.2734375 8.06640625 5.2734375 8.06640625 3.375 5.5625 C2.74335938 4.73878906 2.11171875 3.91507813 1.4609375 3.06640625 C0 1 0 1 0 0 Z " fill="#99D1EA" transform="translate(175,214)"/>
<path d="M0 0 C0.99 0 1.98 0 3 0 C4.125 3.3125 4.125 3.3125 5 7 C3 10 3 10 1 11 C1.04640625 11.65226562 1.0928125 12.30453125 1.140625 12.9765625 C1.39266565 19.07954686 0.96057979 22.2968115 -3 27 C-5.84710214 22.72934679 -4.88020339 19.5673589 -4.3125 14.625 C-4.19358398 13.34882813 -4.19358398 13.34882813 -4.07226562 12.046875 C-3.57337864 7.43845131 -3.09722304 3.66240972 0 0 Z " fill="#182B48" transform="translate(301,342)"/>
<path d="M0 0 C1.5 1.1875 1.5 1.1875 3 3 C3 4.66666667 3 6.33333333 3 8 C4.14646548 9.89661743 4.14646548 9.89661743 6 11 C7.32 11 8.64 11 10 11 C10 11.66 10 12.32 10 13 C8.68 13.33 7.36 13.66 6 14 C6 14.66 6 15.32 6 16 C7.65 16.33 9.3 16.66 11 17 C11 17.33 11 17.66 11 18 C6.36452812 18.45445803 3.05781838 18.60446764 -1.0625 16.25 C-3.99588 11.3294916 -3.40126033 6.59089386 -3 1 C-2.01 0.67 -1.02 0.34 0 0 Z " fill="#455369" transform="translate(336,353)"/>
<path d="M0 0 C4.8405363 3.16085494 8.96172448 6.88023461 13 11 C12 13 12 13 10 14 C9.7525 13.38125 9.505 12.7625 9.25 12.125 C7.75710375 9.58707638 6.59572059 9.2585312 4 8 C3.566875 7.360625 3.13375 6.72125 2.6875 6.0625 C0.3018613 3.14671936 -2.54107735 2.34513659 -6 1 C-6.33 0.67 -6.66 0.34 -7 0 C-9.55635242 -0.15493045 -12.06709459 -0.23176182 -14.625 -0.25 C-15.67494141 -0.2809375 -15.67494141 -0.2809375 -16.74609375 -0.3125 C-21.94660561 -0.35109378 -25.29482242 0.83663504 -30 3 C-32.43359375 3.29296875 -32.43359375 3.29296875 -34.4375 3.1875 C-36.2009375 3.0946875 -36.2009375 3.0946875 -38 3 C-37.67 2.34 -37.34 1.68 -37 1 C-35.21484375 0.47265625 -35.21484375 0.47265625 -33 0 C-32.30003906 -0.24878906 -31.60007812 -0.49757812 -30.87890625 -0.75390625 C-20.88964457 -4.24088293 -9.71082608 -4.61344893 0 0 Z " fill="#B4DEF0" transform="translate(327,158)"/>
<path d="M0 0 C0 0.33 0 0.66 0 1 C-0.74572266 0.99476318 -1.49144531 0.98952637 -2.25976562 0.98413086 C-5.67316834 0.96320761 -9.08655751 0.95029127 -12.5 0.9375 C-13.67304688 0.92912109 -14.84609375 0.92074219 -16.0546875 0.91210938 C-22.13794882 0.89502156 -27.98754144 1.05497248 -34 2 C-34.33 2.99 -34.66 3.98 -35 5 C-35.33 4.67 -35.66 4.34 -36 4 C-38.67058851 3.85884839 -41.32432238 3.95752893 -44 4 C-44.33 4.99 -44.66 5.98 -45 7 C-47.31 7 -49.62 7 -52 7 C-38.34386364 -3.94361613 -16.27456541 -4.5797772 0 0 Z " fill="#ABD7EF" transform="translate(250,128)"/>
<path d="M0 0 C1.98 0 3.96 0 6 0 C6.042721 1.66611905 6.04063832 3.33382885 6 5 C5 6 5 6 2.4375 6.0625 C1.2309375 6.0315625 1.2309375 6.0315625 0 6 C0.33 8.97 0.66 11.94 1 15 C3.475 15.99 3.475 15.99 6 17 C6.042721 18.66611905 6.04063832 20.33382885 6 22 C5 23 5 23 2.25 23.25 C-1.33357037 22.97434074 -3.09858004 22.04806115 -6 20 C-5.505 18.515 -5.505 18.515 -5 17 C-5 17.66 -5 18.32 -5 19 C-4.34 19 -3.68 19 -3 19 C-2.34 14.38 -1.68 9.76 -1 5 C-0.34 5 0.32 5 1 5 C0.67 3.35 0.34 1.7 0 0 Z " fill="#404B5D" transform="translate(209,348)"/>
<path d="M0 0 C0.226875 0.598125 0.45375 1.19625 0.6875 1.8125 C2.34703745 4.57839575 4.20498395 5.46274117 7 7 C9 9 9 9 10 11 C12.32156597 11.40729228 14.6568787 11.74438677 17 12 C17 12.33 17 12.66 17 13 C14.45651575 13.13593443 11.92038504 13.23448907 9.375 13.3125 C8.66214844 13.35439453 7.94929687 13.39628906 7.21484375 13.43945312 C3.20549121 13.53141075 0.73054878 13.21181033 -2.4609375 10.66796875 C-5 8 -5 8 -6 5 C-4.68 4.34 -3.36 3.68 -2 3 C-1.67 3.33 -1.34 3.66 -1 4 C-0.67 2.68 -0.34 1.36 0 0 Z " fill="#404D64" transform="translate(182,358)"/>
<path d="M0 0 C4.28535873 1.35123924 8.29283413 3.0036033 12.375 4.875 C20.05155211 8.22118938 27.84122488 10.19871199 36 12 C36 12.33 36 12.66 36 13 C26.1 13.495 26.1 13.495 16 14 C16.33 12.68 16.66 11.36 17 10 C15.88625 9.896875 14.7725 9.79375 13.625 9.6875 C11.830625 9.3471875 11.830625 9.3471875 10 9 C9.34 8.01 8.68 7.02 8 6 C7.34 6.66 6.68 7.32 6 8 C6 7.01 6 6.02 6 5 C5.01 5 4.02 5 3 5 C2.67 4.34 2.34 3.68 2 3 C1.01 2.34 0.02 1.68 -1 1 C-0.67 0.67 -0.34 0.34 0 0 Z " fill="#53A6DF" transform="translate(197,252)"/>
<path d="M0 0 C0.66 0 1.32 0 2 0 C3.14077657 3.42232972 3.09815117 6.08673217 3.0625 9.6875 C3.05347656 10.86699219 3.04445312 12.04648437 3.03515625 13.26171875 C3.02355469 14.16535156 3.01195312 15.06898438 3 16 C-3.625 15.25 -3.625 15.25 -7 13 C-6.67 11.68 -6.34 10.36 -6 9 C-5.34 9 -4.68 9 -4 9 C-4 8.34 -4 7.68 -4 7 C-3.34 7 -2.68 7 -2 7 C-2.04125 6.21625 -2.0825 5.4325 -2.125 4.625 C-2 2 -2 2 0 0 Z " fill="#283B54" transform="translate(196,354)"/>
<path d="M0 0 C-1.71031495 3.4206299 -5.70246504 4.07268729 -9.125 5.375 C-9.93235596 5.68445557 -10.73971191 5.99391113 -11.5715332 6.31274414 C-21.12871982 9.89938637 -30.67775323 13.32789856 -41 13 C-40.34 12.01 -39.68 11.02 -39 10 C-36.3984375 9.70703125 -36.3984375 9.70703125 -33.375 9.8125 C-31.87066406 9.85310547 -31.87066406 9.85310547 -30.3359375 9.89453125 C-29.56507813 9.92933594 -28.79421875 9.96414062 -28 10 C-28 9.34 -28 8.68 -28 8 C-24.88089144 6.20724134 -22.32317572 5.65709282 -18.75 5.375 C-17.85796875 5.30023438 -16.9659375 5.22546875 -16.046875 5.1484375 C-15.37140625 5.09945312 -14.6959375 5.05046875 -14 5 C-14 4.34 -14 3.68 -14 3 C-4.58997722 -0.44419134 -4.58997722 -0.44419134 0 0 Z " fill="#9AD1EA" transform="translate(322,239)"/>
<path d="M0 0 C0.99 0 1.98 0 3 0 C6.03367062 3.03367062 6.68213287 5.78826059 7 10 C6.78749585 13.01953568 6.43266834 16.00460378 6 19 C5.01 18.01 4.02 17.02 3 16 C2.67 17.32 2.34 18.64 2 20 C1.34 20 0.68 20 0 20 C0 13.4 0 6.8 0 0 Z " fill="#182A47" transform="translate(358,342)"/>
<path d="M0 0 C0.66 0.33 1.32 0.66 2 1 C2 6.28 2 11.56 2 17 C0.35 17.33 -1.3 17.66 -3 18 C-4.29060033 15.41879934 -4.13272333 13.50580171 -4.125 10.625 C-4.12757813 9.66851562 -4.13015625 8.71203125 -4.1328125 7.7265625 C-4.01341169 5.27533407 -3.9055602 3.2795136 -3 1 C-2.01 0.67 -1.02 0.34 0 0 Z " fill="#2F4056" transform="translate(238,353)"/>
<path d="M0 0 C0.845625 0.185625 1.69125 0.37125 2.5625 0.5625 C6.2773282 1.03529632 9.32974273 0.66064631 13 0 C13.6875 1.8125 13.6875 1.8125 14 4 C12.47698387 5.9581636 11.21773977 6.89113011 9 8 C7.29297265 8.06996014 5.58331997 8.08440154 3.875 8.0625 C2.96492188 8.05347656 2.05484375 8.04445313 1.1171875 8.03515625 C0.41851562 8.02355469 -0.28015625 8.01195312 -1 8 C-1.33 7.34 -1.66 6.68 -2 6 C-1.01 5.01 -0.02 4.02 1 3 C0.67 2.01 0.34 1.02 0 0 Z " fill="#3F4D63" transform="translate(379,363)"/>
<path d="M0 0 C2.27076842 -0.02699725 4.54162821 -0.04639453 6.8125 -0.0625 C8.07707031 -0.07410156 9.34164062 -0.08570313 10.64453125 -0.09765625 C14 0 14 0 17 1 C18.69867188 1.14777936 20.40177489 1.24747066 22.10546875 1.31640625 C23.57983398 1.37924805 23.57983398 1.37924805 25.08398438 1.44335938 C26.62022461 1.50233398 26.62022461 1.50233398 28.1875 1.5625 C29.74114258 1.62727539 29.74114258 1.62727539 31.32617188 1.69335938 C33.8839819 1.79944366 36.44188845 1.90150146 39 2 C39 2.66 39 3.32 39 4 C10.64207904 4.41277905 10.64207904 4.41277905 0 2 C0 1.34 0 0.68 0 0 Z " fill="#9FD5EE" transform="translate(235,250)"/>
<path d="M0 0 C0.33 0 0.66 0 1 0 C1.97388004 4.65298242 1.93571688 8.69425299 1.5 13.4375 C0.93931319 19.68412615 0.99800238 24.99400714 3 31 C3.33 32.175625 3.66 33.35125 4 34.5625 C4.83726246 37.82416864 4.83726246 37.82416864 6 40 C5.34 40.66 4.68 41.32 4 42 C-2.9385276 28.35872001 -3.19490223 14.74789688 0 0 Z " fill="#B1D6E5" transform="translate(102,225)"/>
<path d="M0 0 C0.53625 0.2475 1.0725 0.495 1.625 0.75 C-0.88752467 4.64441324 -0.88752467 4.64441324 -3.3046875 5.16796875 C-5.93777362 5.90821372 -6.63165547 6.95806411 -8.25 9.125 C-10.92403606 12.45223571 -13.43974055 14.01116443 -17.375 15.75 C-17.705 16.41 -18.035 17.07 -18.375 17.75 C-19.035 17.75 -19.695 17.75 -20.375 17.75 C-17.74279484 11.43270761 -7.60686095 -0.8007222 0 0 Z " fill="#99D2EE" transform="translate(198.375,135.25)"/>
<path d="M0 0 C2.4375 0.375 2.4375 0.375 5 1 C6.24546405 3.49092811 5.7767578 4.41080733 5 7 C6.65 7 8.3 7 10 7 C10.38218767 8.65614657 10.71395102 10.32457024 11 12 C10 13 10 13 7.4375 13.0625 C6.633125 13.041875 5.82875 13.02125 5 13 C5.08708669 14.45945288 5.19526907 15.91765868 5.3125 17.375 C5.39951172 18.59316406 5.39951172 18.59316406 5.48828125 19.8359375 C5.82990528 22.37921338 5.82990528 22.37921338 9 24 C7.02 24.99 7.02 24.99 5 26 C3.92042623 22.76127868 3.86673216 20.33971795 3.875 16.9375 C3.87113281 15.34228516 3.87113281 15.34228516 3.8671875 13.71484375 C4 11 4 11 5 9 C4.34 8.67 3.68 8.34 3 8 C2.63451555 6.67511887 2.3062434 5.33981486 2 4 C1.36345658 2.6520257 0.70394612 1.31403276 0 0 Z " fill="#586577" transform="translate(360,341)"/>
<path d="M0 0 C1.65 0.33 3.3 0.66 5 1 C5 1.99 5 2.98 5 4 C8.74738373 4.96361296 11.25094263 4.78927524 15 4 C18 5 18 5 20 6 C20 6.66 20 7.32 20 8 C17.22813012 8.10787818 14.46044463 8.18723327 11.6875 8.25 C10.90181641 8.28351563 10.11613281 8.31703125 9.30664062 8.3515625 C7.13339453 8.38855392 5.14030099 8.38367634 3 8 C0.95703125 5.984375 0.95703125 5.984375 0 4 C-0.33 4.66 -0.66 5.32 -1 6 C-0.67 4.02 -0.34 2.04 0 0 Z " fill="#172944" transform="translate(153,353)"/>
<path d="M0 0 C0.66 0 1.32 0 2 0 C2.33 1.98 2.66 3.96 3 6 C3.66 6 4.32 6 5 6 C4.67 7.32 4.34 8.64 4 10 C4.99 10.33 5.98 10.66 7 11 C7 11.66 7 12.32 7 13 C5 15 5 15 1.875 15.125 C0.451875 15.063125 0.451875 15.063125 -1 15 C-2.51708428 4.44191344 -2.51708428 4.44191344 0 0 Z " fill="#182A46" transform="translate(116,355)"/>
<path d="M0 0 C3.125 0.375 3.125 0.375 6 1 C8.42857143 7.28571429 8.42857143 7.28571429 7 11 C4.69 11 2.38 11 0 11 C0.04125 9.88625 0.0825 8.7725 0.125 7.625 C0.41121859 3.95633975 0.41121859 3.95633975 -2 2 C-1.34 1.34 -0.68 0.68 0 0 Z " fill="#1A2B46" transform="translate(258,350)"/>
<path d="M0 0 C1.65 0.33 3.3 0.66 5 1 C5.22937511 5.71652565 4.46206455 9.3974273 3 13.875 C2.62875 15.02742188 2.2575 16.17984375 1.875 17.3671875 C1.441875 18.67042969 1.441875 18.67042969 1 20 C0.67 20 0.34 20 0 20 C-0.33 17.03 -0.66 14.06 -1 11 C-0.34 10.67 0.32 10.34 1 10 C1 9.34 1 8.68 1 8 C0.01 8 -0.98 8 -2 8 C-2.33 7.01 -2.66 6.02 -3 5 C-1.5625 2.3125 -1.5625 2.3125 0 0 Z " fill="#495467" transform="translate(145,340)"/>
<path d="M0 0 C4.62 0 9.24 0 14 0 C14 0.99 14 1.98 14 3 C9.59085217 4.10228696 5.51617599 4.07654536 1 4 C1.34786708 5.97536745 1.34786708 5.97536745 2 8 C2.66 8.33 3.32 8.66 4 9 C3.01 10.485 3.01 10.485 2 12 C0.68 11.34 -0.64 10.68 -2 10 C-1.67 8.906875 -1.34 7.81375 -1 6.6875 C0.13086649 3.15421116 0.13086649 3.15421116 0 0 Z " fill="#152740" transform="translate(377,357)"/>
<path d="M0 0 C1.44207941 2.88415883 1.09394887 5.41721528 1.0625 8.625 C1.05347656 9.81351562 1.04445313 11.00203125 1.03515625 12.2265625 C1.02355469 13.14179688 1.01195312 14.05703125 1 15 C-0.98 15 -2.96 15 -5 15 C-5 13.02 -5 11.04 -5 9 C-3.66666667 9.66666667 -2.33333333 10.33333333 -1 11 C-1 10.01 -1 9.02 -1 8 C-2.32 8 -3.64 8 -5 8 C-5.36625971 3.48279689 -5.36625971 3.48279689 -3.625 1.1875 C-2 0 -2 0 0 0 Z " fill="#2C3A4E" transform="translate(274,355)"/>
<path d="M0 0 C0.08121924 1.60332791 0.13929134 3.20784026 0.1875 4.8125 C0.22230469 5.70582031 0.25710937 6.59914063 0.29296875 7.51953125 C0 10 0 10 -1.46875 11.34375 C-3.92591701 14.00150207 -3.57472971 17.236729 -3.6875 20.6875 C-3.72166016 21.38939453 -3.75582031 22.09128906 -3.79101562 22.81445312 C-3.87329947 24.54241387 -3.9383324 26.27118072 -4 28 C-4.33 28 -4.66 28 -5 28 C-5.0867562 23.70845978 -5.1403089 19.41714332 -5.1875 15.125 C-5.21263672 13.90167969 -5.23777344 12.67835938 -5.26367188 11.41796875 C-5.27333984 10.25136719 -5.28300781 9.08476562 -5.29296875 7.8828125 C-5.3086792 6.80402832 -5.32438965 5.72524414 -5.34057617 4.61376953 C-5.22818604 3.75122559 -5.1157959 2.88868164 -5 2 C-2 0 -2 0 0 0 Z " fill="#1A2A45" transform="translate(223,340)"/>
<path d="M0 0 C0.33 0 0.66 0 1 0 C1.17274761 12.4186341 1.17274761 12.4186341 0.4375 18.1875 C-0.32851937 21.7981844 -0.32851937 21.7981844 1 24 C1.99 22.35 2.98 20.7 4 19 C5.125 20.75 5.125 20.75 6 23 C5.125 25.25 5.125 25.25 4 27 C2.02 27 0.04 27 -2 27 C-2.90666673 23.32408921 -2.98794377 20.43753539 -2.44140625 16.69921875 C-2.30283203 15.72275391 -2.16425781 14.74628906 -2.02148438 13.74023438 C-1.87001953 12.73283203 -1.71855469 11.72542969 -1.5625 10.6875 C-1.41490234 9.66076172 -1.26730469 8.63402344 -1.11523438 7.57617188 C-0.75093788 5.04959942 -0.37896284 2.52440712 0 0 Z " fill="#727C90" transform="translate(297,344)"/>
<path d="M0 0 C0.99 0.33 1.98 0.66 3 1 C3 1.66 3 2.32 3 3 C3.66 3 4.32 3 5 3 C6.125 10.75 6.125 10.75 5 13 C2.28553021 13.31241455 -0.33909361 13.51336592 -3.0625 13.625 C-3.82111328 13.66367187 -4.57972656 13.70234375 -5.36132812 13.7421875 C-7.24047195 13.83673562 -9.12020336 13.91946756 -11 14 C-11 13.34 -11 12.68 -11 12 C-4.565 11.505 -4.565 11.505 2 11 C2 9.35 2 7.7 2 6 C1.01 5.67 0.02 5.34 -1 5 C-0.67 3.35 -0.34 1.7 0 0 Z " fill="#576578" transform="translate(389,349)"/>
<path d="M0 0 C4.24 8.48 4.24 8.48 3.625 12.375 C3.41875 12.91125 3.2125 13.4475 3 14 C3 13.01 3 12.02 3 11 C1.19933758 13.9465385 -0.50163895 16.88801935 -2 20 C-3.19287411 16.12315913 -4 13.08378077 -4 9 C-3.34 9 -2.68 9 -2 9 C-1.34 6.03 -0.68 3.06 0 0 Z " fill="#4D5B6E" transform="translate(115,344)"/>
<path d="M0 0 C0.99386719 0.00902344 1.98773438 0.01804688 3.01171875 0.02734375 C4.15060547 0.04474609 4.15060547 0.04474609 5.3125 0.0625 C5.3125 0.7225 5.3125 1.3825 5.3125 2.0625 C5.9725 2.0625 6.6325 2.0625 7.3125 2.0625 C8.66265859 6.11297576 7.93334998 8.8545168 7.3125 13.0625 C6.6525 13.0625 5.9925 13.0625 5.3125 13.0625 C5.3125 13.7225 5.3125 14.3825 5.3125 15.0625 C2.95811267 16.49194945 1.83217567 17.14911261 -0.9375 16.6875 C-1.80375 16.378125 -1.80375 16.378125 -2.6875 16.0625 C-1.553125 15.505625 -0.41875 14.94875 0.75 14.375 C3.76948136 12.64959719 3.76948136 12.64959719 5.375 9.5625 C5.3026973 6.67039207 5.16030601 5.31200297 3.3125 3.0625 C0.27964941 2.20539005 -1.86430339 1.85670085 -4.9375 2.625 C-5.515 2.769375 -6.0925 2.91375 -6.6875 3.0625 C-7.3475 2.4025 -8.0075 1.7425 -8.6875 1.0625 C-5.53819107 0.01273036 -3.29935544 -0.03881595 0 0 Z " fill="#AADBEF" transform="translate(328.6875,235.9375)"/>
<path d="M0 0 C4.36815895 4.36815895 4.13065236 12.57524199 4.25 18.5 C4.15261177 24.12417031 3.18849626 29.51381638 2 35 C1.67 35 1.34 35 1 35 C1.00785522 34.01773438 1.00785522 34.01773438 1.01586914 33.015625 C1.036827 30.01042667 1.0497195 27.00524379 1.0625 24 C1.07087891 22.97003906 1.07925781 21.94007813 1.08789062 20.87890625 C1.44095929 11.18572938 1.44095929 11.18572938 -1 2 C-0.67 1.34 -0.34 0.68 0 0 Z " fill="#BAE1F0" transform="translate(396,223)"/>
<path d="M0 0 C3.22890361 3.92784311 5.23872477 8.39399411 7.39453125 12.95507812 C8.94196245 16.14878525 10.40505782 18.58702023 13 21 C13 21.66 13 22.32 13 23 C11.35 23.66 9.7 24.32 8 25 C8 24.01 8 23.02 8 22 C5.79591928 14.94868574 5.79591928 14.94868574 1 10 C0.5859375 7.71484375 0.5859375 7.71484375 0.375 4.9375 C0.30023438 4.01839844 0.22546875 3.09929687 0.1484375 2.15234375 C0.09945312 1.44207031 0.05046875 0.73179687 0 0 Z " fill="#7CB6DC" transform="translate(155,205)"/>
<path d="M0 0 C2.31 0 4.62 0 7 0 C7 0.66 7 1.32 7 2 C14.98204378 2.98025099 22.97591531 3.50311992 31 4 C23.78672972 8.14555763 15.51597795 6.13448686 7.875 4.125 C6.87956177 3.86468994 6.87956177 3.86468994 5.86401367 3.59912109 C4.22158525 3.13511953 2.60699799 2.57482696 1 2 C0.67 1.34 0.34 0.68 0 0 Z " fill="#97CDE9" transform="translate(134,293)"/>
<path d="M0 0 C-0.99 0.66 -1.98 1.32 -3 2 C-3 2.66 -3 3.32 -3 4 C-4.98 4.99 -6.96 5.98 -9 7 C-12 5 -12 5 -14 2 C-9.82769799 -2.17230201 -5.41860283 -0.81279043 0 0 Z " fill="#424F68" transform="translate(389,348)"/>
<path d="M0 0 C0.99 0.33 1.98 0.66 3 1 C3 1.66 3 2.32 3 3 C3.57363281 3.23847656 4.14726562 3.47695312 4.73828125 3.72265625 C7.46938617 5.26509374 9.12478197 7.08066082 11.1875 9.4375 C12.22970703 10.61119141 12.22970703 10.61119141 13.29296875 11.80859375 C15 14 15 14 16 17 C15.34 17.33 14.68 17.66 14 18 C14 17.34 14 16.68 14 16 C12.68 15.67 11.36 15.34 10 15 C9.896875 14.38125 9.79375 13.7625 9.6875 13.125 C9.12474627 10.63473516 9.12474627 10.63473516 6 9 C5.34 8.34 4.68 7.68 4 7 C4 6.01 4 5.02 4 4 C2.68 3.67 1.36 3.34 0 3 C0 2.01 0 1.02 0 0 Z " fill="#A6D9EE" transform="translate(272,140)"/>
<path d="M0 0 C3 1 3 1 4.67578125 3.07421875 C6.32604856 6.72038457 6.33357162 9.89852958 6.1875 13.8125 C6.17396484 14.50537109 6.16042969 15.19824219 6.14648438 15.91210938 C6.11138845 17.60841265 6.05758943 19.30431136 6 21 C5.67 21 5.34 21 5 21 C4.67 15.72 4.34 10.44 4 5 C0.77595022 6.66954819 0.77595022 6.66954819 0.3125 9.625 C0.209375 10.40875 0.10625 11.1925 0 12 C-2 9 -2 9 -2 6 C-2.66 5.67 -3.32 5.34 -4 5 C-3.01 4.34 -2.02 3.68 -1 3 C-0.67 2.01 -0.34 1.02 0 0 Z " fill="#4D596F" transform="translate(194,349)"/>
<path d="M0 0 C3.99881788 0.61520275 6.80358226 2.60268669 10 5 C10 5.66 10 6.32 10 7 C10.99 7.33 11.98 7.66 13 8 C9.62058652 9.12647116 8.39092328 8.80736269 5 8 C3.6078125 7.7215625 3.6078125 7.7215625 2.1875 7.4375 C1.465625 7.293125 0.74375 7.14875 0 7 C0 4.69 0 2.38 0 0 Z " fill="#5DA8DF" transform="translate(177,239)"/>
<path d="M0 0 C0.12375 0.639375 0.2475 1.27875 0.375 1.9375 C0.58125 2.618125 0.7875 3.29875 1 4 C1.66 4.33 2.32 4.66 3 5 C4.96281457 8.71901707 5.15081169 10.97215907 4 15 C1.5 14.1875 1.5 14.1875 -1 12 C-1.51963943 8.30171512 -1.4226132 4.70692147 -1 1 C-0.67 0.67 -0.34 0.34 0 0 Z " fill="#31445A" transform="translate(152,353)"/>
<path d="M0 0 C1.5625 1.0625 1.5625 1.0625 3 3 C2.6875 6.6875 2.6875 6.6875 2 10 C1.01 10.33 0.02 10.66 -1 11 C-1.66 11.66 -2.32 12.32 -3 13 C-3 9.04 -3 5.08 -3 1 C-2.01 0.67 -1.02 0.34 0 0 Z " fill="#192C46" transform="translate(336,353)"/>
<path d="M0 0 C0 3.3 0 6.6 0 10 C-0.33 9.34 -0.66 8.68 -1 8 C-2.32 8.99 -3.64 9.98 -5 11 C-6.20272819 8.59454362 -6.10071472 7.05003047 -6.0625 4.375 C-6.05347656 3.55773437 -6.04445313 2.74046875 -6.03515625 1.8984375 C-6.02355469 1.27195312 -6.01195312 0.64546875 -6 0 C-2.25 -1.125 -2.25 -1.125 0 0 Z " fill="#172942" transform="translate(354,354)"/>
<path d="M0 0 C0.33 1.65 0.66 3.3 1 5 C-1.125 6.1875 -1.125 6.1875 -4 7 C-7.3125 5.625 -7.3125 5.625 -10 4 C-10 3.34 -10 2.68 -10 2 C-6.49223216 0.39644899 -3.85645121 -0.22036864 0 0 Z " fill="#142642" transform="translate(171,364)"/>
<path d="M0 0 C0.99 0.33 1.98 0.66 3 1 C3.33 1.99 3.66 2.98 4 4 C3.01 4.66 2.02 5.32 1 6 C-0.09506492 9.28519475 -0.09960608 11.73663415 -0.0625 15.1875 C-0.05347656 16.27417969 -0.04445312 17.36085938 -0.03515625 18.48046875 C-0.02355469 19.31191406 -0.01195312 20.14335937 0 21 C-0.66 21 -1.32 21 -2 21 C-2.04898438 20.01257813 -2.09796875 19.02515625 -2.1484375 18.0078125 C-2.22320312 16.72648437 -2.29796875 15.44515625 -2.375 14.125 C-2.44460937 12.84882813 -2.51421875 11.57265625 -2.5859375 10.2578125 C-2.67241106 6.91938301 -2.67241106 6.91938301 -5 5 C-4.01 5 -3.02 5 -2 5 C-2 4.01 -2 3.02 -2 2 C-1.34 2 -0.68 2 0 2 C0 1.34 0 0.68 0 0 Z " fill="#606D81" transform="translate(235,349)"/>
<path d="M0 0 C3.68754757 0.49831724 5.60490662 1.10067643 8 4 C7.67 4.66 7.34 5.32 7 6 C5.35 6 3.7 6 2 6 C2.33 6.66 2.66 7.32 3 8 C3.04022391 10.3329866 3.04320247 12.66706666 3 15 C2.01 15 1.02 15 0 15 C0.33 14.67 0.66 14.34 1 14 C1.04092937 11.66702567 1.04241723 9.33294775 1 7 C0.34 6.67 -0.32 6.34 -1 6 C0.75 2.125 0.75 2.125 3 1 C2.01 0.67 1.02 0.34 0 0 Z " fill="#556278" transform="translate(346,348)"/>
<path d="M0 0 C1.9375 1.5 1.9375 1.5 3 3 C1.35 3 -0.3 3 -2 3 C-2 3.66 -2 4.32 -2 5 C-2 5.99 -2 6.98 -2 8 C-3.65 7.67 -5.3 7.34 -7 7 C-7 6.01 -7 5.02 -7 4 C-7.99 3.67 -8.98 3.34 -10 3 C-7.29940087 -0.81261054 -4.39059989 -0.47042142 0 0 Z " fill="#3D4B62" transform="translate(260,348)"/>
<path d="M0 0 C1.98 0 3.96 0 6 0 C6.042721 1.66611905 6.04063832 3.33382885 6 5 C5.67 5.33 5.34 5.66 5 6 C3.35 6 1.7 6 0 6 C0.33 9.3 0.66 12.6 1 16 C0.34 16 -0.32 16 -1 16 C-2.28571429 8.57142857 -2.28571429 8.57142857 -1 5 C-0.34 5 0.32 5 1 5 C0.67 3.35 0.34 1.7 0 0 Z " fill="#525E72" transform="translate(209,348)"/>
<path d="M0 0 C2.00720923 0.28674418 4.0085944 0.61866701 6 1 C6.66 4.3 7.32 7.6 8 11 C7.34 11 6.68 11 6 11 C6 10.01 6 9.02 6 8 C5.01 8 4.02 8 3 8 C3 7.34 3 6.68 3 6 C2.01 5.67 1.02 5.34 0 5 C-0.75 3 -0.75 3 -1 1 C-0.67 0.67 -0.34 0.34 0 0 Z " fill="#42556B" transform="translate(320,340)"/>
<path d="M0 0 C0.78375 0.04125 1.5675 0.0825 2.375 0.125 C-1.90162761 4.93620606 -7.70901605 8.60608496 -13.625 11.125 C-14.945 11.125 -16.265 11.125 -17.625 11.125 C-17.625 10.465 -17.625 9.805 -17.625 9.125 C-16.59375 8.7125 -15.5625 8.3 -14.5 7.875 C-9.68839373 5.81567155 -4.84069608 0.23050934 0 0 Z " fill="#9BCFEB" transform="translate(378.625,283.875)"/>
<path d="M0 0 C2.31 0 4.62 0 7 0 C7.12375 0.61875 7.2475 1.2375 7.375 1.875 C7.87197356 4.19120832 7.87197356 4.19120832 10 6 C9.67 6.66 9.34 7.32 9 8 C4.71 8 0.42 8 -4 8 C-3.67 7.34 -3.34 6.68 -3 6 C-1.02 6 0.96 6 3 6 C2.67 5.01 2.34 4.02 2 3 C2.66 3 3.32 3 4 3 C4 2.34 4 1.68 4 1 C2.68 0.67 1.36 0.34 0 0 Z " fill="#32475A" transform="translate(382,349)"/>
<path d="M0 0 C0.598125 0.639375 1.19625 1.27875 1.8125 1.9375 C3.90810337 4.20310389 3.90810337 4.20310389 7 5 C7 6.32 7 7.64 7 9 C4.6875 9.6875 4.6875 9.6875 2 10 C0.1875 8.9375 0.1875 8.9375 -1 7 C-1.25 3.875 -1.25 3.875 -1 1 C-0.67 0.67 -0.34 0.34 0 0 Z " fill="#162C4B" transform="translate(308,353)"/>
<path d="M0 0 C3.3125 0.25 3.3125 0.25 7 1 C8.6875 3 8.6875 3 10 5 C12.09415804 5.79623822 12.09415804 5.79623822 14 6 C14 7.32 14 8.64 14 10 C8.97619887 8.43006215 4.9530017 5.39884258 1 2 C0.67 1.34 0.34 0.68 0 0 Z " fill="#8FCAE8" transform="translate(119,283)"/>
<path d="M0 0 C4.21775732 1.35525536 8.29421322 2.90200114 12.375 4.625 C13.96441406 5.29402344 13.96441406 5.29402344 15.5859375 5.9765625 C16.38257813 6.31429688 17.17921875 6.65203125 18 7 C18 7.33 18 7.66 18 8 C11.9453125 8.1953125 11.9453125 8.1953125 10 8 C9.34 7.34 8.68 6.68 8 6 C7.34 6.66 6.68 7.32 6 8 C6 7.01 6 6.02 6 5 C5.01 5 4.02 5 3 5 C2.67 4.34 2.34 3.68 2 3 C1.01 2.34 0.02 1.68 -1 1 C-0.67 0.67 -0.34 0.34 0 0 Z " fill="#7BB8DD" transform="translate(197,252)"/>
<path d="M0 0 C1.48831242 0.00667405 2.97660807 0.01863442 4.46484375 0.03515625 C5.22345703 0.03966797 5.98207031 0.04417969 6.76367188 0.04882812 C8.64326246 0.06064945 10.52281274 0.07858547 12.40234375 0.09765625 C12.40234375 0.42765625 12.40234375 0.75765625 12.40234375 1.09765625 C5.96734375 1.59265625 5.96734375 1.59265625 -0.59765625 2.09765625 C-0.26765625 2.75765625 0.06234375 3.41765625 0.40234375 4.09765625 C-0.23703125 4.20078125 -0.87640625 4.30390625 -1.53515625 4.41015625 C-2.21578125 4.63703125 -2.89640625 4.86390625 -3.59765625 5.09765625 C-3.92765625 6.08765625 -4.25765625 7.07765625 -4.59765625 8.09765625 C-5.91765625 7.43765625 -7.23765625 6.77765625 -8.59765625 6.09765625 C-8.26765625 5.43765625 -7.93765625 4.77765625 -7.59765625 4.09765625 C-6.93765625 4.42765625 -6.27765625 4.75765625 -5.59765625 5.09765625 C-5.38109375 4.13859375 -5.38109375 4.13859375 -5.16015625 3.16015625 C-4.20177876 -0.35389455 -3.93364551 0.10677648 0 0 Z " fill="#7D8998" transform="translate(252.59765625,360.90234375)"/>
<path d="M0 0 C-1.64108767 3.28217533 -5.17347434 3.9066035 -8.4375 5.1875 C-9.13166016 5.47302734 -9.82582031 5.75855469 -10.54101562 6.05273438 C-12.33611416 6.76695073 -14.16676255 7.39030809 -16 8 C-16.66 7.67 -17.32 7.34 -18 7 C-17.67 6.34 -17.34 5.68 -17 5 C-16.01 5 -15.02 5 -14 5 C-14 4.34 -14 3.68 -14 3 C-4.58997722 -0.44419134 -4.58997722 -0.44419134 0 0 Z " fill="#B0DBF1" transform="translate(322,239)"/>
<path d="M0 0 C1.32 0 2.64 0 4 0 C4.042721 1.66611905 4.04063832 3.33382885 4 5 C3 6 3 6 0.125 6.25 C-3 6 -3 6 -4.875 4.5 C-5.24625 4.005 -5.6175 3.51 -6 3 C-4.02 2.34 -2.04 1.68 0 1 C0 0.67 0 0.34 0 0 Z " fill="#3D495A" transform="translate(366,365)"/>
<path d="M0 0 C0.33 0 0.66 0 1 0 C1.07347656 0.95712891 1.07347656 0.95712891 1.1484375 1.93359375 C1.22320312 2.75988281 1.29796875 3.58617187 1.375 4.4375 C1.44460937 5.26121094 1.51421875 6.08492188 1.5859375 6.93359375 C1.72257812 7.61550781 1.85921875 8.29742187 2 9 C2.66 9.33 3.32 9.66 4 10 C2.125 14.875 2.125 14.875 1 16 C-0.66617115 16.04063832 -2.33388095 16.042721 -4 16 C-2.6875 14.5 -2.6875 14.5 -1 13 C-0.01 13 0.98 13 2 13 C0.68 12.01 -0.64 11.02 -2 10 C-1.34 8.68 -0.68 7.36 0 6 C-0.66 6 -1.32 6 -2 6 C-1.33333333 4 -0.66666667 2 0 0 Z " fill="#56677B" transform="translate(121,355)"/>
<path d="M0 0 C0.33 0 0.66 0 1 0 C1.22786458 1.98567708 1.45572917 3.97135417 1.68359375 5.95703125 C1.97170735 8.19396393 1.97170735 8.19396393 3 11 C3.33 12.175625 3.66 13.35125 4 14.5625 C4.83726246 17.82416864 4.83726246 17.82416864 6 20 C5.34 20.66 4.68 21.32 4 22 C0.77370111 15.78749889 -1.06371759 10.05990891 -1 3 C-0.67 2.01 -0.34 1.02 0 0 Z " fill="#95CDE7" transform="translate(102,245)"/>
<path d="M0 0 C3.32532111 2.69192661 4.52454943 6.06546515 6 10 C6 10.99 6 11.98 6 13 C8.31 13 10.62 13 13 13 C13 13.33 13 13.66 13 14 C11.741875 14.04125 10.48375 14.0825 9.1875 14.125 C8.47980469 14.14820313 7.77210938 14.17140625 7.04296875 14.1953125 C5 14 5 14 2 12 C1.26953125 10.1953125 1.26953125 10.1953125 0.8125 8.125 C0.65394531 7.44695312 0.49539063 6.76890625 0.33203125 6.0703125 C0 4 0 4 0 0 Z " fill="#C4E3F1" transform="translate(340,171)"/>
<path d="M0 0 C0.66 0 1.32 0 2 0 C2.84098656 4.01804691 3.05404945 7.01803543 2 11 C0.35 10.67 -1.3 10.34 -3 10 C-2.74438677 7.6568787 -2.40729228 5.32156597 -2 3 C-1.34 2.67 -0.68 2.34 0 2 C0 1.34 0 0.68 0 0 Z " fill="#162944" transform="translate(180,352)"/>
<path d="M0 0 C2.0625 0.4375 2.0625 0.4375 4 1 C2.02 1.99 2.02 1.99 0 3 C0 12.24 0 21.48 0 31 C-0.33 31 -0.66 31 -1 31 C-1.02465622 26.74585377 -1.04283899 22.49174502 -1.05493164 18.23754883 C-1.05997101 16.78929927 -1.06680253 15.34105483 -1.07543945 13.89282227 C-1.08752247 11.81525412 -1.09323211 9.73775303 -1.09765625 7.66015625 C-1.10289307 6.40855713 -1.10812988 5.15695801 -1.11352539 3.86743164 C-1 1 -1 1 0 0 Z " fill="#76808E" transform="translate(218,339)"/>
<path d="M0 0 C0.33 0 0.66 0 1 0 C1.33 2.64 1.66 5.28 2 8 C3.32 8.33 4.64 8.66 6 9 C6 12 6 15 6 18 C2.44058554 14.94907332 0.18435882 11.35057495 -0.1875 6.609375 C-0.1875 4.39804104 -0.13242496 2.20708275 0 0 Z " fill="#7BC9F2" transform="translate(167,184)"/>
<path d="M0 0 C0 3.11227195 -0.45627049 5.94152152 -1 9 C-1.66 9 -2.32 9 -3 9 C-2.67 10.98 -2.34 12.96 -2 15 C-2.99 15.495 -2.99 15.495 -4 16 C-5.59453633 12.81092735 -5.38561702 9.47055318 -5 6 C-2.86111111 1.43055556 -2.86111111 1.43055556 0 0 Z " fill="#656F80" transform="translate(247,349)"/>
<path d="M0 0 C1.5 1.375 1.5 1.375 3 3 C3 3.66 3 4.32 3 5 C2.34 5 1.68 5 1 5 C1.33 6.98 1.66 8.96 2 11 C0.68 11.33 -0.64 11.66 -2 12 C-2.05395478 10.37536158 -2.09277195 8.75021459 -2.125 7.125 C-2.14820312 6.22007812 -2.17140625 5.31515625 -2.1953125 4.3828125 C-2 2 -2 2 0 0 Z " fill="#22344D" transform="translate(124,353)"/>
<path d="M0 0 C1.24546405 2.49092811 0.7767578 3.41080733 0 6 C0.99 6.33 1.98 6.66 3 7 C3 8.98 3 10.96 3 13 C2.34 13 1.68 13 1 13 C0.67 13.66 0.34 14.32 0 15 C0 13.02 0 11.04 0 9 C-0.99 9 -1.98 9 -3 9 C-2.44271087 5.65626525 -1.64826111 2.96687001 0 0 Z " fill="#4E5B70" transform="translate(318,343)"/>
<path d="M0 0 C4.59808129 0.53894425 7.86784369 1.76571528 11.875 4.0625 C12.84179688 4.61035156 13.80859375 5.15820312 14.8046875 5.72265625 C15.89136719 6.35494141 15.89136719 6.35494141 17 7 C13.89984991 7.85432111 12.05817494 8.18380965 9 7 C8.566875 6.525625 8.13375 6.05125 7.6875 5.5625 C5.15934702 3.22161761 2.28887243 2.80670456 -1 2 C-0.67 1.34 -0.34 0.68 0 0 Z " fill="#B2DCEC" transform="translate(250,129)"/>
<path d="M0 0 C2.97 0.495 2.97 0.495 6 1 C5.67 1.66 5.34 2.32 5 3 C4.67 3.99 4.34 4.98 4 6 C1.36 5.67 -1.28 5.34 -4 5 C-4.33 3.68 -4.66 2.36 -5 1 C-2.525 1.495 -2.525 1.495 0 2 C0 1.34 0 0.68 0 0 Z " fill="#182845" transform="translate(343,348)"/>
<path d="M0 0 C2.5 2.0625 2.5 2.0625 4 4 C3.67 4.66 3.34 5.32 3 6 C2.50371094 5.72285156 2.00742188 5.44570313 1.49609375 5.16015625 C-3.09318168 2.71312324 -6.81559721 1.43203357 -12 1 C-8.17965833 -1.70607535 -4.31121218 -1.26332652 0 0 Z " fill="#606A7C" transform="translate(169,348)"/>
<path d="M0 0 C2.97 0.495 2.97 0.495 6 1 C5.67 1.66 5.34 2.32 5 3 C4.21625 3.2475 3.4325 3.495 2.625 3.75 C-0.8984964 5.42785543 -1.44485854 7.51944531 -3 11 C-3.99 11.495 -3.99 11.495 -5 12 C-3.85814266 7.52040582 -2.56984833 3.85477249 0 0 Z " fill="#5F6C7D" transform="translate(127,343)"/>
<path d="M0 0 C0.66 0.33 1.32 0.66 2 1 C1.01 1.33 0.02 1.66 -1 2 C-1 3.32 -1 4.64 -1 6 C-2.98 6.33 -4.96 6.66 -7 7 C-7 7.66 -7 8.32 -7 9 C-8.32 8.67 -9.64 8.34 -11 8 C-7.37 5.36 -3.74 2.72 0 0 Z " fill="#96CFEB" transform="translate(129,191)"/>
<path d="M0 0 C0.33 3.3 0.66 6.6 1 10 C0.67 8.68 0.34 7.36 0 6 C-0.66 6 -1.32 6 -2 6 C-2 5.34 -2 4.68 -2 4 C-5.3 3.67 -8.6 3.34 -12 3 C-12 2.67 -12 2.34 -12 2 C-10.56342755 1.66269158 -9.12569907 1.33030409 -7.6875 1 C-6.88699219 0.814375 -6.08648437 0.62875 -5.26171875 0.4375 C-3 0 -3 0 0 0 Z " fill="#8EC3E2" transform="translate(152,184)"/>
<path d="M0 0 C0.66 0.33 1.32 0.66 2 1 C2.44921875 2.8125 2.44921875 2.8125 2.6875 5 C2.77386719 5.721875 2.86023438 6.44375 2.94921875 7.1875 C2.97435547 8.0846875 2.97435547 8.0846875 3 9 C2 10 2 10 -1.5625 10.0625 C-2.696875 10.041875 -3.83125 10.02125 -5 10 C-4.67 9.01 -4.34 8.02 -4 7 C-3.34 7 -2.68 7 -2 7 C-1.67 6.34 -1.34 5.68 -1 5 C-0.34 5 0.32 5 1 5 C0.67 3.35 0.34 1.7 0 0 Z " fill="#3C485B" transform="translate(263,351)"/>
<path d="M0 0 C1.65 0 3.3 0 5 0 C5 0.99 5 1.98 5 3 C3.68 3 2.36 3 1 3 C0.67 9.6 0.34 16.2 0 23 C-0.33 23 -0.66 23 -1 23 C-1.02894547 19.54168414 -1.04678 16.08339928 -1.0625 12.625 C-1.07087891 11.64015625 -1.07925781 10.6553125 -1.08789062 9.640625 C-1.09111328 8.69960938 -1.09433594 7.75859375 -1.09765625 6.7890625 C-1.10289307 5.91975098 -1.10812988 5.05043945 -1.11352539 4.15478516 C-1 2 -1 2 0 0 Z " fill="#848A99" transform="translate(203,341)"/>
<path d="M0 0 C0.99 0 1.98 0 3 0 C6 3.33333333 6 3.33333333 6 6 C4.35 6.33 2.7 6.66 1 7 C0.67 7.99 0.34 8.98 0 10 C0 6.7 0 3.4 0 0 Z " fill="#27354C" transform="translate(358,342)"/>
<path d="M0 0 C0.66 0 1.32 0 2 0 C4 2 4 2 5 4 C7.32156597 4.40729228 9.6568787 4.74438677 12 5 C12 5.33 12 5.66 12 6 C6.72 6 1.44 6 -4 6 C-4 5.67 -4 5.34 -4 5 C-2.02 5 -0.04 5 2 5 C1.34 3.35 0.68 1.7 0 0 Z M-1 2 C-0.34 2.66 0.32 3.32 1 4 C0.34 4 -0.32 4 -1 4 C-1 3.34 -1 2.68 -1 2 Z " fill="#616B82" transform="translate(187,365)"/>
<path d="M0 0 C0.86625 0.4640625 0.86625 0.4640625 1.75 0.9375 C3.84294184 1.92583364 5.74535275 2.5168613 8 3 C8 3.66 8 4.32 8 5 C6 7 6 7 2.875 7.125 C1.451875 7.063125 1.451875 7.063125 0 7 C-0.38133299 5.0085944 -0.71325582 3.00720923 -1 1 C-0.67 0.67 -0.34 0.34 0 0 Z " fill="#304056" transform="translate(115,363)"/>
<path d="M0 0 C-2.81359827 1.41958822 -5.63939607 2.80246051 -8.5 4.125 C-9.2528125 4.47820312 -10.005625 4.83140625 -10.78125 5.1953125 C-13 6 -13 6 -17 6 C-17 5.34 -17 4.68 -17 4 C-5.47835991 -0.59225513 -5.47835991 -0.59225513 0 0 Z " fill="#7BB4D8" transform="translate(315,259)"/>
<path d="M0 0 C4.62 0 9.24 0 14 0 C13.01 0.495 13.01 0.495 12 1 C12 1.66 12 2.32 12 3 C9.03 3 6.06 3 3 3 C3 2.34 3 1.68 3 1 C2.01 0.67 1.02 0.34 0 0 Z " fill="#81CBF5" transform="translate(282,246)"/>
<path d="M0 0 C0.66 0 1.32 0 2 0 C2 1.32 2 2.64 2 4 C2.66 4.33 3.32 4.66 4 5 C3.67 5.99 3.34 6.98 3 8 C0.9375 8.6875 0.9375 8.6875 -1 9 C-1.80967438 6.08517222 -2.21845993 4.53886783 -1.0625 1.6875 C-0.711875 1.130625 -0.36125 0.57375 0 0 Z " fill="#182942" transform="translate(132,349)"/>
<path d="M0 0 C2.97 0.495 2.97 0.495 6 1 C6 2.32 6 3.64 6 5 C3.69 5 1.38 5 -1 5 C-0.67 3.35 -0.34 1.7 0 0 Z " fill="#213149" transform="translate(249,365)"/>
<path d="M0 0 C0.33 1.65 0.66 3.3 1 5 C-0.98 5.99 -0.98 5.99 -3 7 C-3 5.68 -3 4.36 -3 3 C-5.31 3 -7.62 3 -10 3 C-6.1865669 0.45771127 -4.5252563 -0.11908569 0 0 Z " fill="#626F7E" transform="translate(263,363)"/>
<path d="M0 0 C2.5625 0.875 2.5625 0.875 4.4375 3.3125 C4.80875 4.158125 5.18 5.00375 5.5625 5.875 C5.2325 6.535 4.9025 7.195 4.5625 7.875 C3.0625 6.5625 3.0625 6.5625 1.5625 4.875 C1.5625 3.885 1.5625 2.895 1.5625 1.875 C-1.59865776 3.24483503 -2.4302092 3.8640638 -4.4375 6.875 C-4.4375 4.895 -4.4375 2.915 -4.4375 0.875 C-2.4375 -0.125 -2.4375 -0.125 0 0 Z " fill="#535D6C" transform="translate(302.4375,340.125)"/>
<path d="M0 0 C4.95 0 9.9 0 15 0 C14.34 0.66 13.68 1.32 13 2 C11.865625 1.979375 10.73125 1.95875 9.5625 1.9375 C6.06124612 1.64362971 6.06124612 1.64362971 4.0625 3.5 C3.711875 3.995 3.36125 4.49 3 5 C2.87625 4.360625 2.7525 3.72125 2.625 3.0625 C2.315625 2.0415625 2.315625 2.0415625 2 1 C1.34 0.67 0.68 0.34 0 0 Z " fill="#79C7F0" transform="translate(332,251)"/>
<path d="M0 0 C0.66 0.99 1.32 1.98 2 3 C0.625 5.5 0.625 5.5 -1 8 C-1.66 8 -2.32 8 -3 8 C-3 8.66 -3 9.32 -3 10 C-3.66 10 -4.32 10 -5 10 C-5 11.32 -5 12.64 -5 14 C-5.66 14 -6.32 14 -7 14 C-5.53967505 8.68972746 -3.01679014 4.53669968 0 0 Z " fill="#8FC8E7" transform="translate(112,206)"/>
<path d="M0 0 C1.125 1.75 1.125 1.75 2 4 C1.125 6.25 1.125 6.25 0 8 C-1.98 8 -3.96 8 -6 8 C-6 7.01 -6 6.02 -6 5 C-5.01 5 -4.02 5 -3 5 C-1.28288757 2.55503957 -1.28288757 2.55503957 0 0 Z " fill="#4D566D" transform="translate(301,363)"/>
<path d="M0 0 C0.99 0.33 1.98 0.66 3 1 C3 2.65 3 4.3 3 6 C0.69 5.67 -1.62 5.34 -4 5 C-4 4.34 -4 3.68 -4 3 C-3.34 3 -2.68 3 -2 3 C-2 2.34 -2 1.68 -2 1 C-1.34 0.67 -0.68 0.34 0 0 Z " fill="#1A2C48" transform="translate(196,364)"/>
<path d="M0 0 C0.66 0 1.32 0 2 0 C2.33 0.66 2.66 1.32 3 2 C3.99 2.33 4.98 2.66 6 3 C5.34 4.32 4.68 5.64 4 7 C3.67 6.34 3.34 5.68 3 5 C2.01 5.33 1.02 5.66 0 6 C-0.66 4.68 -1.32 3.36 -2 2 C-1.34 1.34 -0.68 0.68 0 0 Z " fill="#49586C" transform="translate(155,349)"/>
<path d="M0 0 C0.33 0.66 0.66 1.32 1 2 C1.66 2 2.32 2 3 2 C3.33 1.34 3.66 0.68 4 0 C4.99 0.66 5.98 1.32 7 2 C7 2.99 7 3.98 7 5 C8.32 5.33 9.64 5.66 11 6 C6.39374606 6.32136655 3.66486096 5.91033076 0 3 C0 2.01 0 1.02 0 0 Z " fill="#576277" transform="translate(203,365)"/>
<path d="M0 0 C1.98 0.495 1.98 0.495 4 1 C4.33 2.98 4.66 4.96 5 7 C4.34 6.34 3.68 5.68 3 5 C2.34 6.65 1.68 8.3 1 10 C0.34 10 -0.32 10 -1 10 C-1 8.68 -1 7.36 -1 6 C-0.34 6 0.32 6 1 6 C0.67 4.02 0.34 2.04 0 0 Z " fill="#626E81" transform="translate(126,352)"/>
<path d="M0 0 C0.66 0 1.32 0 2 0 C2 0.66 2 1.32 2 2 C3.32 1.67 4.64 1.34 6 1 C6 1.66 6 2.32 6 3 C5.34 3 4.68 3 4 3 C4 3.99 4 4.98 4 6 C1.03 5.505 1.03 5.505 -2 5 C-1.34 3.35 -0.68 1.7 0 0 Z " fill="#1A2C48" transform="translate(229,348)"/>
<path d="M0 0 C8.91 1.98 8.91 1.98 18 4 C18 4.33 18 4.66 18 5 C12.62276306 5.21508948 8.00656018 5.26487246 3 3 C2.01 2.01 1.02 1.02 0 0 Z " fill="#82B8DA" transform="translate(215,260)"/>
<path d="M0 0 C0 0.99 0 1.98 0 3 C-3.63 3.33 -7.26 3.66 -11 4 C-10.67 3.01 -10.34 2.02 -10 1 C-3.375 0 -3.375 0 0 0 Z " fill="#192A4A" transform="translate(391,357)"/>
<path d="M0 0 C0.33 0.66 0.66 1.32 1 2 C0.34 2 -0.32 2 -1 2 C-2.17046435 5.51139306 -1.9899813 8.28405549 -1.83984375 11.94140625 C-2 14 -2 14 -4 16 C-5.19431563 9.81127356 -5.05928533 6.55203634 -2 1 C-1.34 0.67 -0.68 0.34 0 0 Z " fill="#646C78" transform="translate(336,349)"/>
<path d="M0 0 C0.66 0.99 1.32 1.98 2 3 C1.34 4.32 0.68 5.64 0 7 C-0.99 7 -1.98 7 -3 7 C-3 7.66 -3 8.32 -3 9 C-3.66 9 -4.32 9 -5 9 C-3.7508258 5.54074837 -2.32472205 2.85306797 0 0 Z " fill="#98D2EF" transform="translate(177,153)"/>
<path d="M0 0 C0.86625 0.3403125 0.86625 0.3403125 1.75 0.6875 C-0.60380297 4.61050495 -2.89464931 5.52607315 -7.25 6.6875 C-6.87492618 3.96821483 -6.40781339 2.84531339 -4.4375 0.875 C-2.25 -0.3125 -2.25 -0.3125 0 0 Z " fill="#90CCEC" transform="translate(198.25,135.3125)"/>
<path d="M0 0 C5.625 -0.25 5.625 -0.25 9 2 C10.65583225 2.69313908 12.32110979 3.36474424 14 4 C9.98287028 5.60685189 6.93957783 4.43257376 3 3 C1.0625 1.375 1.0625 1.375 0 0 Z " fill="#94D6EF" transform="translate(244,129)"/>
<path d="M0 0 C1.423125 0.495 1.423125 0.495 2.875 1 C5.77062452 2.10159191 5.77062452 2.10159191 8 2 C7.67 3.32 7.34 4.64 7 6 C2.25 5.25 2.25 5.25 0 3 C0 2.01 0 1.02 0 0 Z " fill="#2D3E4F" transform="translate(307,360)"/>
<path d="M0 0 C1.32 0 2.64 0 4 0 C4 2.31 4 4.62 4 7 C3.67 6.34 3.34 5.68 3 5 C1.02 5 -0.96 5 -3 5 C-1.75 2.5 -1.75 2.5 0 0 Z " fill="#344158" transform="translate(170,354)"/>
<path d="M0 0 C0.99 0.33 1.98 0.66 3 1 C2.42655063 3.86724686 2.1385485 4.8614515 0 7 C-0.64767793 9.57061311 -0.64767793 9.57061311 -1 12 C-1.33 12 -1.66 12 -2 12 C-2.05422947 10.5629191 -2.09289723 9.12524538 -2.125 7.6875 C-2.14820313 6.88699219 -2.17140625 6.08648437 -2.1953125 5.26171875 C-2 3 -2 3 0 0 Z " fill="#596677" transform="translate(178,351)"/>
<path d="M0 0 C0.99 0 1.98 0 3 0 C3.33 0.66 3.66 1.32 4 2 C4.66 1.34 5.32 0.68 6 0 C5.125 4.75 5.125 4.75 4 7 C3.01 7 2.02 7 1 7 C0.67 4.69 0.34 2.38 0 0 Z " fill="#2E3C51" transform="translate(109,346)"/>
<path d="M0 0 C0.99 0.33 1.98 0.66 3 1 C3 1.66 3 2.32 3 3 C3.8971875 3.37125 3.8971875 3.37125 4.8125 3.75 C7.28647521 5.16370012 8.43370255 6.65055383 10 9 C8.02 8.34 6.04 7.68 4 7 C4 6.01 4 5.02 4 4 C2.68 3.67 1.36 3.34 0 3 C0 2.01 0 1.02 0 0 Z " fill="#B9E2F1" transform="translate(272,140)"/>
<path d="M0 0 C0.33 0 0.66 0 1 0 C1.22162329 1.62324086 1.42689803 3.248721 1.625 4.875 C1.74101562 5.77992188 1.85703125 6.68484375 1.9765625 7.6171875 C1.98429687 8.40351563 1.99203125 9.18984375 2 10 C1.34 10.66 0.68 11.32 0 12 C-1.32 12 -2.64 12 -4 12 C-4 11.34 -4 10.68 -4 10 C-3.01 10 -2.02 10 -1 10 C-0.67 6.7 -0.34 3.4 0 0 Z " fill="#697284" transform="translate(328,359)"/>
<path d="M0 0 C0.33 0.66 0.66 1.32 1 2 C2.32 2 3.64 2 5 2 C5 3.32 5 4.64 5 6 C4.34 6 3.68 6 3 6 C2.67 7.32 2.34 8.64 2 10 C0.39644899 6.49223216 -0.22036864 3.85645121 0 0 Z " fill="#1C2C44" transform="translate(140,356)"/>
<path d="M0 0 C0 2.64 0 5.28 0 8 C-1.32 8 -2.64 8 -4 8 C-4.36780384 3.46375267 -4.36780384 3.46375267 -2.5625 1.1875 C-1 0 -1 0 0 0 Z " fill="#172A46" transform="translate(273,355)"/>
<path d="M0 0 C3.72114571 2.31537955 6.61229661 4.28579473 9 8 C7.35 7.67 5.7 7.34 4 7 C3.67 6.01 3.34 5.02 3 4 C2.01 3.67 1.02 3.34 0 3 C0 2.01 0 1.02 0 0 Z " fill="#B9DFF1" transform="translate(375,194)"/>
<path d="M0 0 C1.37432457 3.81756824 0.67975039 7.07255329 0 11 C-0.33 10.34 -0.66 9.68 -1 9 C-1.99 9.33 -2.98 9.66 -4 10 C-2.8905928 6.51329166 -1.73662334 3.22515763 0 0 Z " fill="#9AD4ED" transform="translate(171,162)"/>
<path d="M0 0 C0.99 0.33 1.98 0.66 3 1 C3 1.66 3 2.32 3 3 C3.66 3 4.32 3 5 3 C5.33 5.64 5.66 8.28 6 11 C4 8 4 8 4 4 C2.35 4.33 0.7 4.66 -1 5 C-0.67 3.35 -0.34 1.7 0 0 Z " fill="#515B6D" transform="translate(389,349)"/>
<path d="M0 0 C0.66 0 1.32 0 2 0 C1.75 3.375 1.75 3.375 1 7 C-1.0625 8.4375 -1.0625 8.4375 -3 9 C-2.25 2.25 -2.25 2.25 0 0 Z " fill="#162A41" transform="translate(196,354)"/>
<path d="M0 0 C2 4 2 4 2 7 C1.34 7 0.68 7 0 7 C0 7.99 0 8.98 0 10 C-0.99 10 -1.98 10 -3 10 C-3.33 10.99 -3.66 11.98 -4 13 C-4 11.68 -4 10.36 -4 9 C-3.34 9 -2.68 9 -2 9 C-1.34 6.03 -0.68 3.06 0 0 Z " fill="#586379" transform="translate(115,344)"/>
<path d="M0 0 C2.375 -0.125 2.375 -0.125 5 0 C5.66 0.66 6.32 1.32 7 2 C6.625 4.625 6.625 4.625 6 7 C4.35 7 2.7 7 1 7 C1.66 6.01 2.32 5.02 3 4 C3.33 3.01 3.66 2.02 4 1 C2.68 0.67 1.36 0.34 0 0 Z " fill="#687381" transform="translate(276,347)"/>
<path d="M0 0 C1.32 0.66 2.64 1.32 4 2 C4 3.65 4 5.3 4 7 C3.34 6.34 2.68 5.68 2 5 C1.01 5.66 0.02 6.32 -1 7 C-0.67 4.69 -0.34 2.38 0 0 Z " fill="#172942" transform="translate(143,346)"/>
<path d="M0 0 C0 0.66 0 1.32 0 2 C-0.66 2 -1.32 2 -2 2 C-2.33 2.99 -2.66 3.98 -3 5 C-5.31 5 -7.62 5 -10 5 C-3.63636364 0 -3.63636364 0 0 0 Z " fill="#A7D5F0" transform="translate(208,130)"/>
<path d="M0 0 C1.65 0 3.3 0 5 0 C5.33 1.65 5.66 3.3 6 5 C4.68 5.33 3.36 5.66 2 6 C2.66 4.68 3.32 3.36 4 2 C2.68 2.33 1.36 2.66 0 3 C0 2.01 0 1.02 0 0 Z " fill="#2A364B" transform="translate(166,364)"/>
<path d="M0 0 C3.68754757 0.49831724 5.60490662 1.10067643 8 4 C7.67 4.66 7.34 5.32 7 6 C5.68 5.67 4.36 5.34 3 5 C3 3.68 3 2.36 3 1 C2.01 0.67 1.02 0.34 0 0 Z " fill="#5D687C" transform="translate(346,348)"/>
<path d="M0 0 C-0.49360009 4.27786748 -1.04783565 7.09567131 -3 11 C-3.33 8.03 -3.66 5.06 -4 2 C-1 0 -1 0 0 0 Z " fill="#546374" transform="translate(148,349)"/>
<path d="M0 0 C-0.20625 0.78375 -0.4125 1.5675 -0.625 2.375 C-0.74875 3.24125 -0.8725 4.1075 -1 5 C-0.34 5.66 0.32 6.32 1 7 C0.01 7.33 -0.98 7.66 -2 8 C-2.28875 7.38125 -2.5775 6.7625 -2.875 6.125 C-3.93720042 3.86674235 -3.93720042 3.86674235 -6 2 C-3 0 -3 0 0 0 Z " fill="#445368" transform="translate(185,348)"/>
<path d="M0 0 C1.98 0.99 3.96 1.98 6 3 C6 3.66 6 4.32 6 5 C6.99 5.33 7.98 5.66 9 6 C6 7 6 7 3.375 5.8125 C1 4 1 4 0.1875 1.8125 C0.125625 1.214375 0.06375 0.61625 0 0 Z " fill="#8DBEDF" transform="translate(181,241)"/>
<path d="M0 0 C3.08943092 2.52771621 4.11644276 5.1444775 5 9 C4.01 10.485 4.01 10.485 3 12 C2.49440092 10.56445975 1.9957251 9.1264798 1.5 7.6875 C1.2215625 6.88699219 0.943125 6.08648437 0.65625 5.26171875 C0 3 0 3 0 0 Z " fill="#9BD3EC" transform="translate(167,193)"/>
<path d="M0 0 C0.99 0 1.98 0 3 0 C2.67 3.96 2.34 7.92 2 12 C1.67 12 1.34 12 1 12 C0.67 8.04 0.34 4.08 0 0 Z " fill="#535F70" transform="translate(321,357)"/>
<path d="M0 0 C0.33 0 0.66 0 1 0 C1.91297308 4.97063121 1.91297308 9.02936879 1 14 C-1.36574234 10.4513865 -1.10865265 9.4235475 -0.625 5.3125 C-0.51414062 4.31863281 -0.40328125 3.32476562 -0.2890625 2.30078125 C-0.19367188 1.54152344 -0.09828125 0.78226563 0 0 Z " fill="#95C6E6" transform="translate(102,225)"/>
<path d="M0 0 C2.97 0.33 5.94 0.66 9 1 C9.33 1.99 9.66 2.98 10 4 C7.03 3.67 4.06 3.34 1 3 C0.67 2.01 0.34 1.02 0 0 Z " fill="#9BD2ED" transform="translate(344,184)"/>
<path d="M0 0 C1.65 0.33 3.3 0.66 5 1 C5.33 2.32 5.66 3.64 6 5 C4.68 5 3.36 5 2 5 C2 4.34 2 3.68 2 3 C0.68 2.67 -0.64 2.34 -2 2 C-1.34 2 -0.68 2 0 2 C0 1.34 0 0.68 0 0 Z M3 2 C3 2.66 3 3.32 3 4 C3.66 3.67 4.32 3.34 5 3 C4.34 2.67 3.68 2.34 3 2 Z " fill="#182943" transform="translate(183,365)"/>
<path d="M0 0 C2.475 0.99 2.475 0.99 5 2 C4.34 3.65 3.68 5.3 3 7 C2.01 6.67 1.02 6.34 0 6 C0 4.02 0 2.04 0 0 Z " fill="#172842" transform="translate(244,359)"/>
<path d="M0 0 C0.33 0.99 0.66 1.98 1 3 C1.66 3.33 2.32 3.66 3 4 C2.34 5.32 1.68 6.64 1 8 C0.34 8 -0.32 8 -1 8 C-0.979375 7.21625 -0.95875 6.4325 -0.9375 5.625 C-0.81315937 3.01885039 -0.81315937 3.01885039 -2 1 C-1.34 0.67 -0.68 0.34 0 0 Z " fill="#142542" transform="translate(325,348)"/>
<path d="M0 0 C1.67542976 0.28604898 3.34385343 0.61781233 5 1 C5 1.33 5 1.66 5 2 C7.97 2.495 7.97 2.495 11 3 C11 3.33 11 3.66 11 4 C9.56344146 4.08131463 8.1255517 4.13933559 6.6875 4.1875 C5.48673828 4.23970703 5.48673828 4.23970703 4.26171875 4.29296875 C1.52148416 3.93801608 0.70828921 3.10633718 -1 1 C-0.67 0.67 -0.34 0.34 0 0 Z " fill="#35475C" transform="translate(247,353)"/>
<path d="M0 0 C1.32 0 2.64 0 4 0 C4.33 1.65 4.66 3.3 5 5 C3.35 5 1.7 5 0 5 C-0.33 4.01 -0.66 3.02 -1 2 C-0.67 1.34 -0.34 0.68 0 0 Z " fill="#1B2A43" transform="translate(276,348)"/>
<path d="M0 0 C2.7839183 1.39195915 2.97898997 3.15575779 4 6 C1.61435923 5.42415568 -0.66682784 4.77772405 -3 4 C-3 3.34 -3 2.68 -3 2 C-2.01 1.34 -1.02 0.68 0 0 Z " fill="#80C8F0" transform="translate(222,242)"/>
<path d="M0 0 C0.66 0.33 1.32 0.66 2 1 C1.01 3.31 0.02 5.62 -1 8 C-1.33 7.34 -1.66 6.68 -2 6 C-2.66 5.67 -3.32 5.34 -4 5 C-3.67 4.34 -3.34 3.68 -3 3 C-2.34 3 -1.68 3 -1 3 C-0.67 2.01 -0.34 1.02 0 0 Z " fill="#84C8EE" transform="translate(181,150)"/>
<path d="M0 0 C0.4125 0.515625 0.825 1.03125 1.25 1.5625 C-2.03696233 2.36203138 -3.46023192 2.65908936 -6.75 1.5625 C-5.75 -0.4375 -5.75 -0.4375 -3.875 -1.25 C-1.75 -1.4375 -1.75 -1.4375 0 0 Z " fill="#7ACAF6" transform="translate(198.75,140.4375)"/>
<path d="M0 0 C0.33 0 0.66 0 1 0 C1.042721 1.66611905 1.04063832 3.33382885 1 5 C0 6 0 6 -2.5625 6.0625 C-3.7690625 6.0315625 -3.7690625 6.0315625 -5 6 C-5 5.01 -5 4.02 -5 3 C-3.68 3 -2.36 3 -1 3 C-0.67 2.01 -0.34 1.02 0 0 Z " fill="#3D475B" transform="translate(223,365)"/>
<path d="M0 0 C0.66 0 1.32 0 2 0 C2 3.3 2 6.6 2 10 C1.01 10.33 0.02 10.66 -1 11 C-0.67 7.37 -0.34 3.74 0 0 Z " fill="#63727B" transform="translate(295,358)"/>
<path d="M0 0 C0.66 0.33 1.32 0.66 2 1 C1.67 2.98 1.34 4.96 1 7 C0.34 6.67 -0.32 6.34 -1 6 C-1 5.34 -1 4.68 -1 4 C-1.66 4 -2.32 4 -3 4 C-2.67 3.01 -2.34 2.02 -2 1 C-1.34 0.67 -0.68 0.34 0 0 Z " fill="#152B48" transform="translate(317,351)"/>
<path d="M0 0 C1.9453125 -0.29296875 1.9453125 -0.29296875 4.125 -0.1875 C5.40375 -0.125625 6.6825 -0.06375 8 0 C4.99382731 3.00617269 2.17618402 2.59585316 -2 3 C-1.34 2.01 -0.68 1.02 0 0 Z " fill="#9ED0EF" transform="translate(353,295)"/>
<path d="M0 0 C2.5 2.3125 2.5 2.3125 5 5 C5 5.99 5 6.98 5 8 C2.5 6.25 2.5 6.25 0 4 C0 2.68 0 1.36 0 0 Z " fill="#B3E1F2" transform="translate(384,202)"/>
<path d="M0 0 C1.32 0.66 2.64 1.32 4 2 C3.34 3.65 2.68 5.3 2 7 C1.01 7 0.02 7 -1 7 C-0.67 4.69 -0.34 2.38 0 0 Z " fill="#7DC9F1" transform="translate(172,162)"/>
<path d="M0 0 C3 0 3 0 5 1 C5 1.99 5 2.98 5 4 C3.35 4.33 1.7 4.66 0 5 C0 3.35 0 1.7 0 0 Z " fill="#152743" transform="translate(360,363)"/>
<path d="M0 0 C0.33 1.32 0.66 2.64 1 4 C0.01 4.33 -0.98 4.66 -2 5 C-2 7.31 -2 9.62 -2 12 C-2.33 12 -2.66 12 -3 12 C-3.36923077 4.61538462 -3.36923077 4.61538462 -1.5 1.5 C-1.005 1.005 -0.51 0.51 0 0 Z " fill="#7D8696" transform="translate(374,351)"/>
<path d="M0 0 C2.31 0 4.62 0 7 0 C6.67 1.65 6.34 3.3 6 5 C4.68 4.34 3.36 3.68 2 3 C2.66 3 3.32 3 4 3 C4 2.34 4 1.68 4 1 C2.68 0.67 1.36 0.34 0 0 Z " fill="#192542" transform="translate(382,349)"/>
<path d="M0 0 C1.65 0.33 3.3 0.66 5 1 C1.375 4 1.375 4 -2 4 C-1.34 2.68 -0.68 1.36 0 0 Z " fill="#4E596F" transform="translate(272,348)"/>
<path d="M0 0 C2.10633718 1.70828921 2.93801608 2.52148416 3.29296875 5.26171875 C3.25816406 6.06222656 3.22335937 6.86273438 3.1875 7.6875 C3.16042969 8.49574219 3.13335937 9.30398437 3.10546875 10.13671875 C3.07066406 10.75160156 3.03585937 11.36648437 3 12 C2.67 12 2.34 12 2 12 C0.86235649 7.73383684 0 4.43513689 0 0 Z " fill="#AADBEC" transform="translate(340,171)"/>
<path d="M0 0 C0.66 0.33 1.32 0.66 2 1 C1.01 3.31 0.02 5.62 -1 8 C-1.99 7.01 -2.98 6.02 -4 5 C-3.34 4.67 -2.68 4.34 -2 4 C-0.86649466 1.98330173 -0.86649466 1.98330173 0 0 Z " fill="#7CCBF4" transform="translate(218,129)"/>
<path d="M0 0 C1.98 0 3.96 0 6 0 C6 0.99 6 1.98 6 3 C3.69 2.67 1.38 2.34 -1 2 C-0.67 1.34 -0.34 0.68 0 0 Z " fill="#2E3C59" transform="translate(344,367)"/>
<path d="M0 0 C2.475 0.495 2.475 0.495 5 1 C5 1.99 5 2.98 5 4 C4.01 4 3.02 4 2 4 C1.34 2.68 0.68 1.36 0 0 Z " fill="#424A61" transform="translate(360,341)"/>
<path d="M0 0 C1.32 0 2.64 0 4 0 C4 2.31 4 4.62 4 7 C0 2.25 0 2.25 0 0 Z " fill="#93C9E8" transform="translate(107,267)"/>
<path d="M0 0 C3.0916909 2.52956528 3.90931332 5.22454612 5 9 C3.0625 8.4375 3.0625 8.4375 1 7 C0.25 3.375 0.25 3.375 0 0 Z " fill="#B9DEEE" transform="translate(391,212)"/>
</svg>
